<svg width="409" height="325" viewBox="0 0 409 325" fill="none" xmlns="http://www.w3.org/2000/svg">
<path d="M23.9059 44.8967L0 0.5H401L384.017 32.6595C379.885 40.4839 379.418 49.7334 382.741 57.9343L396.1 90.9071C399.225 98.6201 399.006 107.285 395.495 114.83L383.962 139.613C379.903 148.335 380.274 158.475 384.959 166.878L401.19 195.991C406.07 204.744 406.257 215.356 401.688 224.276L385.02 256.818C380.337 265.96 380.658 276.863 385.87 285.715L409 325H0L21.8233 287.935C27.7283 277.906 27.2999 265.366 20.7241 255.764L10.4979 240.83C4.06614 231.438 3.50444 219.214 9.04774 209.272L22.8785 184.464C28.1976 174.923 27.9108 163.246 22.1298 153.978L9.13938 133.152C3.48165 124.082 3.07802 112.686 8.07984 103.238L24.0054 73.1564C28.6889 64.3098 28.6516 53.7101 23.9059 44.8967Z" fill="#0B1440"/>
</svg>
