<?xml version="1.0" encoding="UTF-8" ?>
<!DOCTYPE svg PUBLIC "-//W3C//DTD SVG 1.1//EN" "http://www.w3.org/Graphics/SVG/1.1/DTD/svg11.dtd">
<svg width="1024pt" height="1024pt" viewBox="0 0 1024 1024" version="1.1" xmlns="http://www.w3.org/2000/svg">
<g id="#e7b724ff">
<path fill="#e7b724" opacity="1.00" d=" M 235.84 231.90 C 261.23 221.74 288.76 217.37 316.05 218.12 C 328.25 218.88 340.52 219.54 352.44 222.48 C 368.25 226.18 383.47 232.82 396.46 242.63 C 409.15 252.33 418.99 265.62 424.31 280.69 C 436.29 263.43 452.61 249.47 470.59 238.74 C 492.68 226.27 517.86 220.10 543.00 218.02 C 553.36 217.60 563.74 217.64 574.10 218.12 C 579.37 219.18 584.77 219.37 590.08 220.24 C 608.89 223.74 627.27 230.79 642.72 242.22 C 644.32 243.41 645.96 244.55 647.74 245.47 C 648.76 240.59 649.26 235.40 651.83 231.02 C 654.66 226.76 659.96 224.60 664.98 224.97 C 764.65 224.93 864.33 224.97 964.00 224.94 C 970.65 225.09 977.32 224.71 983.97 225.12 C 987.58 226.16 990.70 228.77 992.38 232.15 C 992.65 234.65 992.08 237.13 991.52 239.55 C 982.78 279.03 973.52 318.38 964.79 357.85 C 963.89 362.45 960.07 367.30 954.99 367.01 C 929.29 366.96 903.58 367.06 877.88 366.96 C 877.25 368.33 876.60 369.71 876.29 371.21 C 853.86 470.73 831.30 570.23 808.67 669.71 C 807.52 673.92 807.04 678.33 805.43 682.40 C 802.80 688.59 793.48 689.44 789.18 684.64 C 787.01 681.96 787.64 678.29 788.25 675.19 C 802.63 608.59 818.05 542.22 832.69 475.67 C 841.62 437.14 850.13 398.51 859.05 359.98 C 860.20 356.00 860.58 351.83 861.99 347.93 C 882.98 348.65 903.99 348.15 924.98 348.19 C 932.24 348.06 939.52 348.34 946.77 347.87 C 948.08 346.93 948.14 345.12 948.64 343.71 C 955.86 310.63 963.40 277.62 970.75 244.57 C 873.83 244.76 776.90 244.29 679.98 244.42 C 675.63 244.51 671.22 244.01 666.95 244.99 C 664.20 256.05 661.78 267.18 659.34 278.30 C 658.88 280.67 658.71 283.09 658.48 285.50 C 655.62 282.29 653.99 278.18 651.10 274.98 C 641.67 264.03 629.71 255.31 616.59 249.30 C 601.44 242.57 584.91 239.68 568.49 238.32 C 540.67 236.63 511.92 240.22 486.65 252.53 C 465.96 262.10 448.42 277.69 435.00 296.00 C 424.00 310.41 416.92 327.21 409.70 343.70 C 409.12 345.05 408.41 346.34 407.67 347.61 C 406.98 344.10 408.37 340.61 408.58 337.12 C 409.27 325.29 411.08 313.38 409.37 301.54 C 407.81 288.37 401.90 275.87 393.14 265.96 C 382.62 255.02 368.62 247.92 354.03 244.16 C 343.60 241.12 332.76 240.07 322.00 239.05 C 305.58 238.89 289.02 238.34 272.84 241.64 C 247.33 245.97 222.85 257.20 203.69 274.70 C 176.11 299.60 157.62 334.77 154.21 371.89 C 153.23 386.74 154.89 402.07 161.18 415.71 C 167.12 429.16 177.14 440.27 187.77 450.21 C 203.88 464.74 222.25 476.41 240.05 488.69 C 241.57 489.52 242.10 491.10 242.25 492.73 C 240.35 494.68 237.95 496.27 235.09 495.98 C 197.73 496.05 160.37 495.94 123.01 496.04 C 120.08 496.22 115.52 496.03 114.71 499.70 C 112.68 507.38 111.35 515.24 108.96 522.83 C 100.06 526.88 90.73 529.93 81.93 534.20 C 81.97 536.54 82.11 538.90 82.69 541.19 C 87.27 561.49 92.03 581.75 97.14 601.92 C 98.80 609.48 105.14 614.47 110.24 619.78 C 112.82 622.14 115.02 625.03 118.02 626.90 C 125.99 627.28 133.99 626.80 141.97 627.06 C 142.61 633.36 137.77 638.66 138.05 644.93 C 139.29 648.08 141.97 650.33 144.28 652.71 C 158.92 666.72 175.27 678.91 192.70 689.23 C 196.24 691.25 199.65 693.97 203.91 694.17 C 209.17 689.99 214.26 685.60 219.44 681.32 C 222.85 678.38 227.43 676.96 231.90 677.60 C 237.16 678.03 241.44 681.44 245.31 684.73 C 247.13 686.20 249.30 687.94 251.82 687.51 C 256.84 686.57 261.35 684.04 266.06 682.19 C 277.37 677.58 288.40 672.32 299.71 667.70 C 303.33 666.13 307.12 664.64 309.99 661.82 C 310.40 650.31 311.26 638.80 310.99 627.27 C 321.28 618.52 331.39 609.41 339.73 598.72 C 349.99 586.12 358.67 572.16 364.81 557.09 C 366.18 576.98 372.07 596.96 383.72 613.32 C 394.36 628.36 408.97 640.54 425.69 648.29 C 449.96 660.19 477.19 664.59 504.00 665.41 C 535.11 666.46 566.67 661.58 595.40 649.32 C 608.85 643.76 621.38 636.14 633.18 627.66 C 631.71 635.80 629.94 643.89 627.86 651.89 C 627.55 653.39 626.17 654.27 624.98 655.06 C 596.07 672.82 562.62 682.56 528.90 685.07 C 518.61 685.92 508.24 686.47 497.95 685.40 C 492.66 684.84 487.30 685.33 482.07 684.27 C 460.92 681.78 440.04 676.33 420.70 667.33 C 403.63 659.11 387.79 647.95 375.38 633.55 C 368.47 624.76 362.19 615.25 358.48 604.63 C 354.61 607.69 352.13 612.14 348.73 615.69 C 341.96 622.89 334.96 629.91 327.18 636.02 C 327.98 644.67 327.86 653.38 327.79 662.07 C 327.67 667.27 326.67 673.05 322.61 676.69 C 317.06 680.13 310.86 682.30 305.01 685.13 C 289.52 691.91 274.02 698.67 258.54 705.47 C 255.33 707.15 251.62 707.36 248.10 706.86 C 241.05 704.29 237.12 696.73 230.10 694.27 C 225.13 697.00 221.40 701.38 217.03 704.91 C 213.45 707.85 210.07 712.13 205.01 712.10 C 199.78 712.53 195.40 709.13 190.99 706.86 C 173.95 696.51 156.98 685.89 141.51 673.27 C 135.40 668.51 129.18 663.72 124.23 657.72 C 121.31 654.10 121.58 649.18 121.09 644.82 C 117.65 644.59 112.69 642.40 110.27 645.64 C 107.57 643.72 105.26 641.35 103.16 638.80 C 97.60 633.02 92.10 627.17 86.81 621.14 C 84.81 618.48 82.14 616.12 81.33 612.76 C 75.12 587.20 68.93 561.62 62.96 535.99 C 62.20 531.00 62.99 525.44 66.17 521.38 C 69.89 516.56 76.33 515.89 81.55 513.51 C 85.42 511.75 90.25 511.29 93.26 508.15 C 95.03 501.85 95.59 495.19 97.71 488.96 C 99.24 484.45 103.02 480.98 107.39 479.27 C 112.86 478.21 118.49 478.43 124.04 478.49 C 146.72 478.50 169.40 478.56 192.07 478.45 C 190.79 476.50 188.63 475.43 186.88 473.96 C 178.80 467.15 170.27 460.74 163.57 452.49 C 150.60 438.46 141.01 420.94 137.98 401.96 C 134.42 382.16 135.36 361.61 140.67 342.20 C 149.25 309.52 168.39 279.94 193.74 257.76 C 206.43 247.17 220.58 238.28 235.84 231.90 Z" />
<path fill="#e7b724" opacity="1.00" d=" M 701.10 395.90 C 702.97 395.04 705.02 395.56 707.00 395.64 C 711.71 395.93 716.44 395.73 721.16 395.83 C 716.19 414.68 712.59 433.87 708.21 452.86 C 696.72 504.45 685.76 556.18 673.55 607.59 C 667.20 608.94 660.30 607.38 653.85 608.88 C 653.71 606.54 654.31 604.28 654.91 602.05 C 670.17 533.31 685.53 464.58 701.10 395.90 Z" />
<path fill="#e7b724" opacity="1.00" d=" M 763.70 447.67 C 778.32 430.17 793.37 412.91 807.61 395.17 C 794.77 456.17 781.60 517.11 768.52 578.06 C 767.77 582.74 766.20 587.26 765.79 592.00 C 773.89 591.59 782.00 592.18 790.11 591.78 C 789.53 596.87 788.65 602.12 787.13 606.95 C 754.04 607.07 720.95 606.96 687.86 607.00 C 695.27 575.17 702.45 543.28 709.30 511.33 C 709.44 510.98 709.74 510.29 709.89 509.94 C 728.07 489.40 745.71 468.38 763.70 447.67 M 777.79 453.06 C 767.44 464.99 757.32 477.12 746.88 488.97 C 741.04 496.08 734.52 502.62 728.77 509.81 C 738.77 511.69 748.82 513.34 758.80 515.36 C 761.51 515.98 764.39 515.88 766.97 517.05 C 769.19 510.97 769.70 504.41 771.32 498.15 C 775.23 481.44 778.01 464.45 782.77 447.96 C 780.72 449.23 779.38 451.30 777.79 453.06 M 721.12 521.86 C 721.00 525.01 719.92 528.01 719.26 531.08 C 716.50 543.71 713.76 556.34 711.04 568.98 C 710.62 570.96 709.98 572.93 710.09 574.99 C 713.50 570.43 717.99 566.85 721.63 562.49 C 726.39 556.67 732.18 551.79 736.84 545.88 C 742.60 539.58 749.00 533.83 754.24 527.08 C 743.11 526.18 732.14 523.61 721.12 521.86 M 755.68 545.68 C 740.82 560.80 727.13 577.02 712.05 591.93 C 724.94 591.71 737.85 591.63 750.74 591.96 C 752.15 589.18 752.03 586.00 752.92 583.07 C 756.48 567.99 759.02 552.66 763.13 537.72 C 760.16 539.88 757.99 542.87 755.68 545.68 Z" />
<path fill="#e7b724" opacity="1.00" d=" M 437.55 417.50 C 444.46 410.06 456.17 406.98 465.48 411.59 C 475.69 415.46 481.51 427.53 479.04 437.98 C 477.38 448.95 467.83 457.47 457.06 459.17 C 452.72 477.35 449.40 495.79 445.43 514.07 C 443.66 523.38 441.26 532.59 440.39 542.05 C 439.46 552.66 446.36 562.92 456.01 567.04 C 472.00 574.19 492.31 566.73 500.48 551.36 C 504.81 543.18 505.91 533.87 507.99 524.98 C 511.75 505.81 515.72 486.69 519.54 467.53 C 520.54 460.37 523.44 453.57 527.82 447.82 C 534.71 439.39 543.86 432.05 554.85 430.16 C 559.89 429.69 564.93 429.02 570.01 429.13 C 597.36 429.16 624.71 429.19 652.06 429.18 C 655.53 429.06 658.74 430.60 660.96 433.25 C 662.50 438.96 660.84 445.52 655.80 448.95 C 648.55 449.70 641.26 449.29 633.99 449.35 C 612.64 449.20 591.29 449.38 569.95 449.28 C 564.70 449.04 559.35 449.48 554.39 451.31 C 545.45 455.01 538.60 463.24 536.63 472.73 C 532.60 489.72 529.88 507.00 525.92 524.02 C 523.45 537.27 521.08 551.01 513.83 562.63 C 506.86 574.28 495.14 583.04 481.93 586.21 C 469.69 588.99 456.41 587.68 445.24 581.78 C 435.68 576.95 427.62 568.46 424.80 557.96 C 423.23 551.71 422.29 545.17 423.44 538.77 C 425.43 523.32 429.28 508.17 432.29 492.90 C 434.80 480.05 438.05 467.32 440.05 454.39 C 433.77 450.01 430.01 442.60 429.99 434.97 C 430.70 428.58 432.67 421.98 437.55 417.50 M 453.51 423.59 C 444.48 424.94 441.21 439.20 449.56 443.56 C 456.18 448.03 465.23 441.40 465.02 434.00 C 465.72 427.93 459.50 422.18 453.51 423.59 Z" />
</g>
<g id="#043962ff">
<path fill="#043962" opacity="1.00" d=" M 992.38 232.15 C 998.43 241.18 1003.51 250.78 1008.55 260.39 C 1010.60 264.57 1011.23 269.45 1010.02 273.97 C 1001.54 310.42 992.89 346.83 984.43 383.29 C 983.39 387.13 981.45 390.89 978.18 393.28 C 975.05 395.78 970.97 396.47 967.09 396.78 C 943.83 397.13 920.54 396.53 897.28 397.07 C 889.40 432.48 880.86 467.73 872.83 503.11 C 865.40 536.03 857.92 568.94 850.26 601.82 C 842.64 635.57 834.94 669.30 827.01 702.98 C 826.16 706.14 824.96 709.35 822.69 711.77 C 819.31 714.96 814.66 716.70 810.06 716.91 C 757.68 716.82 705.30 717.02 652.92 716.83 C 646.70 717.08 641.82 712.68 638.28 708.07 C 633.60 703.20 629.22 698.08 624.76 693.02 C 606.02 703.19 585.77 710.56 564.84 714.61 C 526.55 721.62 486.47 717.44 450.11 703.74 C 419.96 692.15 392.37 672.54 373.75 645.94 C 366.64 653.85 358.11 660.31 350.07 667.22 C 349.88 676.15 350.68 685.09 350.07 694.01 C 349.70 700.87 344.97 707.01 338.68 709.61 C 318.14 719.04 296.79 726.51 275.71 734.63 C 271.41 736.38 266.11 736.83 262.09 734.15 C 257.64 731.12 254.67 726.29 250.00 723.58 C 245.33 724.64 241.79 728.41 237.59 730.59 C 231.05 734.56 223.45 740.92 215.50 736.49 C 184.40 720.26 156.57 697.95 133.19 671.85 C 127.63 666.37 123.35 659.76 117.71 654.36 C 115.25 651.43 111.95 649.16 110.27 645.64 C 112.69 642.40 117.65 644.59 121.09 644.82 C 121.58 649.18 121.31 654.10 124.23 657.72 C 129.18 663.72 135.40 668.51 141.51 673.27 C 156.98 685.89 173.95 696.51 190.99 706.86 C 195.40 709.13 199.78 712.53 205.01 712.10 C 210.07 712.13 213.45 707.85 217.03 704.91 C 221.40 701.38 225.13 697.00 230.10 694.27 C 237.12 696.73 241.05 704.29 248.10 706.86 C 251.62 707.36 255.33 707.15 258.54 705.47 C 274.02 698.67 289.52 691.91 305.01 685.13 C 310.86 682.30 317.06 680.13 322.61 676.69 C 326.67 673.05 327.67 667.27 327.79 662.07 C 327.86 653.38 327.98 644.67 327.18 636.02 C 334.96 629.91 341.96 622.89 348.73 615.69 C 352.13 612.14 354.61 607.69 358.48 604.63 C 362.19 615.25 368.47 624.76 375.38 633.55 C 387.79 647.95 403.63 659.11 420.70 667.33 C 440.04 676.33 460.92 681.78 482.07 684.27 C 487.30 685.33 492.66 684.84 497.95 685.40 C 508.24 686.47 518.61 685.92 528.90 685.07 C 562.62 682.56 596.07 672.82 624.98 655.06 C 626.17 654.27 627.55 653.39 627.86 651.89 C 629.94 643.89 631.71 635.80 633.18 627.66 C 621.38 636.14 608.85 643.76 595.40 649.32 C 566.67 661.58 535.11 666.46 504.00 665.41 C 477.19 664.59 449.96 660.19 425.69 648.29 C 408.97 640.54 394.36 628.36 383.72 613.32 C 372.07 596.96 366.18 576.98 364.81 557.09 C 358.67 572.16 349.99 586.12 339.73 598.72 C 331.39 609.41 321.28 618.52 310.99 627.27 C 311.26 638.80 310.40 650.31 309.99 661.82 C 307.12 664.64 303.33 666.13 299.71 667.70 C 288.40 672.32 277.37 677.58 266.06 682.19 C 261.35 684.04 256.84 686.57 251.82 687.51 C 249.30 687.94 247.13 686.20 245.31 684.73 C 241.44 681.44 237.16 678.03 231.90 677.60 C 227.43 676.96 222.85 678.38 219.44 681.32 C 214.26 685.60 209.17 689.99 203.91 694.17 C 199.65 693.97 196.24 691.25 192.70 689.23 C 175.27 678.91 158.92 666.72 144.28 652.71 C 141.97 650.33 139.29 648.08 138.05 644.93 C 137.77 638.66 142.61 633.36 141.97 627.06 C 133.99 626.80 125.99 627.28 118.02 626.90 C 115.02 625.03 112.82 622.14 110.24 619.78 C 105.14 614.47 98.80 609.48 97.14 601.92 C 92.03 581.75 87.27 561.49 82.69 541.19 C 82.11 538.90 81.97 536.54 81.93 534.20 C 90.73 529.93 100.06 526.88 108.96 522.83 C 111.35 515.24 112.68 507.38 114.71 499.70 C 115.52 496.03 120.08 496.22 123.01 496.04 C 160.37 495.94 197.73 496.05 235.09 495.98 C 237.95 496.27 240.35 494.68 242.25 492.73 C 242.10 491.10 241.57 489.52 240.05 488.69 C 222.25 476.41 203.88 464.74 187.77 450.21 C 177.14 440.27 167.12 429.16 161.18 415.71 C 154.89 402.07 153.23 386.74 154.21 371.89 C 157.62 334.77 176.11 299.60 203.69 274.70 C 222.85 257.20 247.33 245.97 272.84 241.64 C 289.02 238.34 305.58 238.89 322.00 239.05 C 332.76 240.07 343.60 241.12 354.03 244.16 C 368.62 247.92 382.62 255.02 393.14 265.96 C 401.90 275.87 407.81 288.37 409.37 301.54 C 411.08 313.38 409.27 325.29 408.58 337.12 C 408.37 340.61 406.98 344.10 407.67 347.61 C 408.41 346.34 409.12 345.05 409.70 343.70 C 416.92 327.21 424.00 310.41 435.00 296.00 C 448.42 277.69 465.96 262.10 486.65 252.53 C 511.92 240.22 540.67 236.63 568.49 238.32 C 584.91 239.68 601.44 242.57 616.59 249.30 C 629.71 255.31 641.67 264.03 651.10 274.98 C 653.99 278.18 655.62 282.29 658.48 285.50 C 658.71 283.09 658.88 280.67 659.34 278.30 C 661.78 267.18 664.20 256.05 666.95 244.99 C 671.22 244.01 675.63 244.51 679.98 244.42 C 776.90 244.29 873.83 244.76 970.75 244.57 C 963.40 277.62 955.86 310.63 948.64 343.71 C 948.14 345.12 948.08 346.93 946.77 347.87 C 939.52 348.34 932.24 348.06 924.98 348.19 C 903.99 348.15 882.98 348.65 861.99 347.93 C 860.58 351.83 860.20 356.00 859.05 359.98 C 850.13 398.51 841.62 437.14 832.69 475.67 C 818.05 542.22 802.63 608.59 788.25 675.19 C 787.64 678.29 787.01 681.96 789.18 684.64 C 793.48 689.44 802.80 688.59 805.43 682.40 C 807.04 678.33 807.52 673.92 808.67 669.71 C 831.30 570.23 853.86 470.73 876.29 371.21 C 876.60 369.71 877.25 368.33 877.88 366.96 C 903.58 367.06 929.29 366.96 954.99 367.01 C 960.07 367.30 963.89 362.45 964.79 357.85 C 973.52 318.38 982.78 279.03 991.52 239.55 C 992.08 237.13 992.65 234.65 992.38 232.15 M 256.98 262.07 C 238.25 268.32 220.85 278.94 207.32 293.39 C 190.77 310.86 178.58 332.57 172.98 356.01 C 170.34 367.13 170.10 378.73 171.40 390.04 C 173.57 408.18 184.88 423.96 198.51 435.53 C 215.67 451.32 235.31 463.99 254.06 477.76 C 263.64 484.86 273.60 493.23 276.58 505.34 C 279.06 519.23 275.79 533.76 269.02 546.02 C 263.53 555.26 255.31 563.71 244.65 566.54 C 236.16 569.08 226.62 568.33 218.75 564.19 C 212.56 560.79 209.21 553.80 208.28 547.03 C 206.13 535.52 210.09 524.18 211.00 512.79 C 204.00 512.30 196.98 512.83 189.97 512.62 C 169.33 512.81 148.68 512.34 128.06 512.86 C 127.03 519.48 126.09 526.11 124.59 532.64 C 124.26 534.07 123.45 535.52 121.91 535.87 C 115.52 538.27 108.88 540.03 102.58 542.67 C 101.23 543.23 101.36 544.78 101.66 545.94 C 104.61 559.06 106.77 572.38 110.51 585.32 C 111.06 586.62 111.15 588.83 113.01 588.90 C 122.70 589.19 132.41 588.84 142.11 589.05 C 143.58 588.75 144.19 590.22 144.83 591.19 C 149.00 598.12 153.91 604.69 160.01 610.05 C 161.60 611.63 164.12 613.43 162.96 616.02 C 160.82 623.02 157.86 629.80 156.26 636.96 C 156.10 638.35 155.35 640.13 156.71 641.19 C 162.21 646.57 168.98 650.39 174.99 655.16 C 178.26 657.40 181.22 660.32 184.97 661.74 C 188.92 661.11 191.08 657.22 194.03 654.93 C 200.45 649.65 205.24 642.79 211.08 636.94 C 219.62 638.43 228.33 637.59 236.91 638.07 C 243.16 646.35 247.56 655.88 253.93 664.10 C 255.72 667.26 259.72 665.19 262.28 664.32 C 271.93 660.42 281.63 656.58 290.89 651.82 C 292.42 651.21 292.27 649.32 292.40 647.99 C 292.56 640.66 291.97 633.34 291.11 626.06 C 291.09 623.26 290.14 619.68 292.63 617.62 C 295.76 614.76 299.28 612.38 302.57 609.72 C 323.24 592.79 339.62 570.74 350.40 546.33 C 358.03 527.40 363.71 507.45 364.86 486.99 C 364.89 476.50 363.73 465.85 360.14 455.94 C 357.21 448.45 352.91 441.50 347.56 435.49 C 335.71 423.08 321.44 413.44 307.69 403.31 C 294.74 394.06 282.01 384.42 270.27 373.67 C 263.02 367.26 259.69 357.48 260.08 347.97 C 261.09 336.10 266.63 324.56 275.61 316.67 C 282.53 310.71 291.62 306.90 300.86 307.71 C 305.27 308.13 310.82 308.63 313.16 313.02 C 316.96 319.20 316.47 326.97 314.48 333.68 C 311.96 343.14 308.88 352.46 306.85 362.05 C 314.92 362.47 323.00 362.26 331.07 362.33 C 349.66 362.17 368.28 362.67 386.86 362.07 C 389.66 345.76 394.17 329.61 394.28 312.96 C 394.37 299.32 389.46 285.13 379.11 275.90 C 367.68 265.19 352.38 259.73 337.15 257.21 C 310.51 253.50 282.75 253.60 256.98 262.07 M 515.24 259.41 C 500.03 262.83 485.59 269.68 473.28 279.23 C 468.42 283.01 463.33 286.62 459.50 291.51 C 453.43 297.86 447.81 304.64 443.21 312.13 C 430.65 330.88 423.64 352.53 417.04 373.91 C 413.68 387.27 409.67 400.47 406.98 413.98 C 398.71 447.73 391.10 481.65 385.27 515.91 C 383.34 532.88 382.07 550.06 384.23 567.08 C 386.84 581.88 392.28 596.48 402.12 608.05 C 413.91 622.69 431.51 631.23 449.17 636.60 C 464.76 640.51 480.91 642.28 496.98 641.77 C 516.07 640.65 535.26 637.92 553.34 631.49 C 579.30 622.22 601.80 603.15 614.49 578.60 C 622.03 564.77 627.57 549.88 631.52 534.64 C 633.66 525.83 636.25 517.06 637.01 507.99 C 637.36 506.10 636.37 503.42 634.02 504.01 C 621.70 504.19 609.38 503.57 597.07 503.94 C 594.22 504.33 589.94 504.55 589.23 508.03 C 585.94 520.21 581.30 532.01 574.94 542.92 C 568.32 555.27 559.75 567.55 546.76 573.79 C 537.96 578.49 527.64 578.41 518.03 576.95 C 515.38 578.47 513.50 581.15 510.97 582.94 C 502.37 591.25 490.45 594.76 479.00 597.03 C 464.08 600.16 448.47 596.06 435.57 588.40 C 424.82 581.39 416.95 570.01 414.54 557.37 C 411.94 547.23 413.59 536.72 415.55 526.64 C 417.62 517.10 419.82 507.59 421.76 498.03 C 424.76 485.99 426.52 473.68 429.63 461.66 C 429.83 460.38 430.51 458.75 429.24 457.78 C 420.57 448.52 418.64 434.18 423.64 422.64 C 427.70 411.66 437.71 403.40 448.99 400.66 C 464.66 396.83 482.78 406.14 487.49 421.86 C 487.86 421.94 488.59 422.11 488.96 422.19 C 490.40 418.61 490.83 414.73 491.81 411.02 C 495.78 394.98 499.57 378.89 504.11 363.00 C 508.12 349.02 512.50 334.42 522.42 323.36 C 529.33 315.76 540.04 313.33 549.94 313.24 C 556.80 313.24 564.49 314.32 569.25 319.80 C 575.13 325.99 575.23 335.23 574.36 343.19 C 571.96 357.61 567.72 371.65 565.03 386.01 C 590.39 386.06 615.75 385.93 641.11 386.09 C 643.43 379.56 644.41 372.66 646.06 365.95 C 648.81 354.17 651.21 342.19 651.32 330.05 C 651.77 317.29 649.42 304.23 643.09 293.03 C 637.64 283.36 628.79 276.18 619.54 270.34 C 613.33 266.56 606.76 263.23 599.71 261.35 C 572.41 253.12 542.91 252.71 515.24 259.41 M 680.41 262.22 C 678.29 274.57 674.65 286.59 672.31 298.90 C 670.11 309.31 667.36 319.64 665.89 330.19 C 695.32 330.07 724.76 330.19 754.19 329.77 C 752.84 337.23 750.81 344.54 749.14 351.93 C 743.41 376.57 737.85 401.25 732.14 425.89 C 727.49 445.67 722.89 465.46 718.86 485.37 C 722.62 482.66 725.19 478.70 728.32 475.34 C 734.08 469.03 739.02 462.02 744.71 455.64 C 757.25 440.60 770.07 425.79 782.43 410.59 C 788.33 403.75 794.52 397.14 800.05 389.99 C 802.83 386.73 805.44 383.17 809.00 380.71 C 813.87 378.59 819.05 382.93 818.95 387.96 C 818.43 395.39 816.54 402.69 814.83 409.93 C 810.43 430.35 805.53 450.65 801.06 471.05 C 796.67 488.59 793.58 506.41 789.39 523.99 C 785.41 543.29 780.50 562.39 777.38 581.86 C 782.28 582.20 787.19 582.01 792.10 582.14 C 800.70 544.83 808.48 507.32 817.05 470.01 C 825.42 433.80 833.57 397.54 841.46 361.23 C 844.12 350.87 845.70 340.25 849.06 330.08 C 868.05 329.84 887.05 330.15 906.04 329.81 C 915.65 329.52 925.34 330.28 934.89 329.08 C 937.14 319.73 939.49 310.40 941.32 300.96 C 943.60 288.90 946.76 277.03 949.32 265.03 C 949.60 263.92 949.92 261.78 948.00 262.27 C 916.66 262.19 885.32 262.11 853.99 262.12 C 796.13 262.24 738.26 261.77 680.41 262.22 M 701.10 395.90 C 685.53 464.58 670.17 533.31 654.91 602.05 C 654.31 604.28 653.71 606.54 653.85 608.88 C 660.30 607.38 667.20 608.94 673.55 607.59 C 685.76 556.18 696.72 504.45 708.21 452.86 C 712.59 433.87 716.19 414.68 721.16 395.83 C 716.44 395.73 711.71 395.93 707.00 395.64 C 705.02 395.56 702.97 395.04 701.10 395.90 M 763.70 447.67 C 745.71 468.38 728.07 489.40 709.89 509.94 C 709.74 510.29 709.44 510.98 709.30 511.33 C 702.45 543.28 695.27 575.17 687.86 607.00 C 720.95 606.96 754.04 607.07 787.13 606.95 C 788.65 602.12 789.53 596.87 790.11 591.78 C 782.00 592.18 773.89 591.59 765.79 592.00 C 766.20 587.26 767.77 582.74 768.52 578.06 C 781.60 517.11 794.77 456.17 807.61 395.17 C 793.37 412.91 778.32 430.17 763.70 447.67 M 437.55 417.50 C 432.67 421.98 430.70 428.58 429.99 434.97 C 430.01 442.60 433.77 450.01 440.05 454.39 C 438.05 467.32 434.80 480.05 432.29 492.90 C 429.28 508.17 425.43 523.32 423.44 538.77 C 422.29 545.17 423.23 551.71 424.80 557.96 C 427.62 568.46 435.68 576.95 445.24 581.78 C 456.41 587.68 469.69 588.99 481.93 586.21 C 495.14 583.04 506.86 574.28 513.83 562.63 C 521.08 551.01 523.45 537.27 525.92 524.02 C 529.88 507.00 532.60 489.72 536.63 472.73 C 538.60 463.24 545.45 455.01 554.39 451.31 C 559.35 449.48 564.70 449.04 569.95 449.28 C 591.29 449.38 612.64 449.20 633.99 449.35 C 641.26 449.29 648.55 449.70 655.80 448.95 C 660.84 445.52 662.50 438.96 660.96 433.25 C 658.74 430.60 655.53 429.06 652.06 429.18 C 624.71 429.19 597.36 429.16 570.01 429.13 C 564.93 429.02 559.89 429.69 554.85 430.16 C 543.86 432.05 534.71 439.39 527.82 447.82 C 523.44 453.57 520.54 460.37 519.54 467.53 C 515.72 486.69 511.75 505.81 507.99 524.98 C 505.91 533.87 504.81 543.18 500.48 551.36 C 492.31 566.73 472.00 574.19 456.01 567.04 C 446.36 562.92 439.46 552.66 440.39 542.05 C 441.26 532.59 443.66 523.38 445.43 514.07 C 449.40 495.79 452.72 477.35 457.06 459.17 C 467.83 457.47 477.38 448.95 479.04 437.98 C 481.51 427.53 475.69 415.46 465.48 411.59 C 456.17 406.98 444.46 410.06 437.55 417.50 M 465.11 466.24 C 461.54 484.47 458.19 502.74 454.33 520.92 C 452.51 531.13 448.76 542.32 453.72 552.24 C 457.53 557.88 464.54 560.05 471.09 559.96 C 469.82 555.97 468.11 552.11 467.28 547.99 C 464.65 538.16 466.55 527.95 467.94 518.09 C 471.86 496.92 476.74 475.95 480.87 454.84 C 476.85 460.01 471.62 464.66 465.11 466.24 M 649.09 624.74 C 648.61 633.16 646.00 641.27 644.83 649.60 C 657.55 649.34 670.28 649.65 683.00 649.86 C 689.67 649.92 696.35 649.60 703.01 650.09 C 704.15 648.22 704.21 645.97 704.68 643.89 C 705.81 637.55 707.22 631.26 708.21 624.89 C 688.51 625.12 668.77 624.42 649.09 624.74 M 723.22 626.01 C 721.96 633.99 720.56 641.96 718.83 649.85 C 731.24 649.53 743.67 649.97 756.09 649.73 C 763.39 649.85 770.70 649.49 778.00 649.95 C 780.19 642.08 780.99 633.86 783.16 625.98 C 763.18 626.08 743.20 625.90 723.22 626.01 M 641.03 665.66 C 639.42 672.86 638.06 680.12 636.82 687.41 C 643.86 687.75 650.92 687.38 657.97 687.45 C 694.94 687.28 731.93 687.71 768.89 687.39 C 770.17 680.16 771.11 672.79 773.16 665.75 C 729.12 665.60 685.07 665.67 641.03 665.66 Z" />
<path fill="#043962" opacity="1.00" d=" M 453.51 423.59 C 459.50 422.18 465.72 427.93 465.02 434.00 C 465.23 441.40 456.18 448.03 449.56 443.56 C 441.21 439.20 444.48 424.94 453.51 423.59 Z" />
<path fill="#043962" opacity="1.00" d=" M 777.79 453.06 C 779.38 451.30 780.72 449.23 782.77 447.96 C 778.01 464.45 775.23 481.44 771.32 498.15 C 769.70 504.41 769.19 510.97 766.97 517.05 C 764.39 515.88 761.51 515.98 758.80 515.36 C 748.82 513.34 738.77 511.69 728.77 509.81 C 734.52 502.62 741.04 496.08 746.88 488.97 C 757.32 477.12 767.44 464.99 777.79 453.06 Z" />
<path fill="#043962" opacity="1.00" d=" M 721.12 521.86 C 732.14 523.61 743.11 526.18 754.24 527.08 C 749.00 533.83 742.60 539.58 736.84 545.88 C 732.18 551.79 726.39 556.67 721.63 562.49 C 717.99 566.85 713.50 570.43 710.09 574.99 C 709.98 572.93 710.62 570.96 711.04 568.98 C 713.76 556.34 716.50 543.71 719.26 531.08 C 719.92 528.01 721.00 525.01 721.12 521.86 Z" />
<path fill="#043962" opacity="1.00" d=" M 755.68 545.68 C 757.99 542.87 760.16 539.88 763.13 537.72 C 759.02 552.66 756.48 567.99 752.92 583.07 C 752.03 586.00 752.15 589.18 750.74 591.96 C 737.85 591.63 724.94 591.71 712.05 591.93 C 727.13 577.02 740.82 560.80 755.68 545.68 Z" />
</g>
<g id="#0b5585ff">
<path fill="#0b5585" opacity="1.00" d=" M 256.98 262.07 C 282.75 253.60 310.51 253.50 337.15 257.21 C 352.38 259.73 367.68 265.19 379.11 275.90 C 389.46 285.13 394.37 299.32 394.28 312.96 C 394.17 329.61 389.66 345.76 386.86 362.07 C 368.28 362.67 349.66 362.17 331.07 362.33 C 323.00 362.26 314.92 362.47 306.85 362.05 C 308.88 352.46 311.96 343.14 314.48 333.68 C 316.47 326.97 316.96 319.20 313.16 313.02 C 310.82 308.63 305.27 308.13 300.86 307.71 C 291.62 306.90 282.53 310.71 275.61 316.67 C 266.63 324.56 261.09 336.10 260.08 347.97 C 259.69 357.48 263.02 367.26 270.27 373.67 C 282.01 384.42 294.74 394.06 307.69 403.31 C 321.44 413.44 335.71 423.08 347.56 435.49 C 352.91 441.50 357.21 448.45 360.14 455.94 C 363.73 465.85 364.89 476.50 364.86 486.99 C 363.71 507.45 358.03 527.40 350.40 546.33 C 339.62 570.74 323.24 592.79 302.57 609.72 C 299.28 612.38 295.76 614.76 292.63 617.62 C 290.14 619.68 291.09 623.26 291.11 626.06 C 291.97 633.34 292.56 640.66 292.40 647.99 C 292.27 649.32 292.42 651.21 290.89 651.82 C 281.63 656.58 271.93 660.42 262.28 664.32 C 259.72 665.19 255.72 667.26 253.93 664.10 C 247.56 655.88 243.16 646.35 236.91 638.07 C 228.33 637.59 219.62 638.43 211.08 636.94 C 205.24 642.79 200.45 649.65 194.03 654.93 C 191.08 657.22 188.92 661.11 184.97 661.74 C 181.22 660.32 178.26 657.40 174.99 655.16 C 168.98 650.39 162.21 646.57 156.71 641.19 C 155.35 640.13 156.10 638.35 156.26 636.96 C 157.86 629.80 160.82 623.02 162.96 616.02 C 164.12 613.43 161.60 611.63 160.01 610.05 C 153.91 604.69 149.00 598.12 144.83 591.19 C 144.19 590.22 143.58 588.75 142.11 589.05 C 132.41 588.84 122.70 589.19 113.01 588.90 C 111.15 588.83 111.06 586.62 110.51 585.32 C 106.77 572.38 104.61 559.06 101.66 545.94 C 101.36 544.78 101.23 543.23 102.58 542.67 C 108.88 540.03 115.52 538.27 121.91 535.87 C 123.45 535.52 124.26 534.07 124.59 532.64 C 126.09 526.11 127.03 519.48 128.06 512.86 C 148.68 512.34 169.33 512.81 189.97 512.62 C 196.98 512.83 204.00 512.30 211.00 512.79 C 210.09 524.18 206.13 535.52 208.28 547.03 C 209.21 553.80 212.56 560.79 218.75 564.19 C 226.62 568.33 236.16 569.08 244.65 566.54 C 255.31 563.71 263.53 555.26 269.02 546.02 C 275.79 533.76 279.06 519.23 276.58 505.34 C 273.60 493.23 263.64 484.86 254.06 477.76 C 235.31 463.99 215.67 451.32 198.51 435.53 C 184.88 423.96 173.57 408.18 171.40 390.04 C 170.10 378.73 170.34 367.13 172.98 356.01 C 178.58 332.57 190.77 310.86 207.32 293.39 C 220.85 278.94 238.25 268.32 256.98 262.07 Z" />
<path fill="#0b5585" opacity="1.00" d=" M 515.24 259.41 C 542.91 252.71 572.41 253.12 599.71 261.35 C 606.76 263.23 613.33 266.56 619.54 270.34 C 628.79 276.18 637.64 283.36 643.09 293.03 C 649.42 304.23 651.77 317.29 651.32 330.05 C 651.21 342.19 648.81 354.17 646.06 365.95 C 644.41 372.66 643.43 379.56 641.11 386.09 C 615.75 385.93 590.39 386.06 565.03 386.01 C 567.72 371.65 571.96 357.61 574.36 343.19 C 575.23 335.23 575.13 325.99 569.25 319.80 C 564.49 314.32 556.80 313.24 549.94 313.24 C 540.04 313.33 529.33 315.76 522.42 323.36 C 512.50 334.42 508.12 349.02 504.11 363.00 C 499.57 378.89 495.78 394.98 491.81 411.02 C 490.83 414.73 490.40 418.61 488.96 422.19 C 488.59 422.11 487.86 421.94 487.49 421.86 C 482.78 406.14 464.66 396.83 448.99 400.66 C 437.71 403.40 427.70 411.66 423.64 422.64 C 418.64 434.18 420.57 448.52 429.24 457.78 C 430.51 458.75 429.83 460.38 429.63 461.66 C 426.52 473.68 424.76 485.99 421.76 498.03 C 419.82 507.59 417.62 517.10 415.55 526.64 C 413.59 536.72 411.94 547.23 414.54 557.37 C 416.95 570.01 424.82 581.39 435.57 588.40 C 448.47 596.06 464.08 600.16 479.00 597.03 C 490.45 594.76 502.37 591.25 510.97 582.94 C 513.50 581.15 515.38 578.47 518.03 576.95 C 527.64 578.41 537.96 578.49 546.76 573.79 C 559.75 567.55 568.32 555.27 574.94 542.92 C 581.30 532.01 585.94 520.21 589.23 508.03 C 589.94 504.55 594.22 504.33 597.07 503.94 C 609.38 503.57 621.70 504.19 634.02 504.01 C 636.37 503.42 637.36 506.10 637.01 507.99 C 636.25 517.06 633.66 525.83 631.52 534.64 C 627.57 549.88 622.03 564.77 614.49 578.60 C 601.80 603.15 579.30 622.22 553.34 631.49 C 535.26 637.92 516.07 640.65 496.98 641.77 C 480.91 642.28 464.76 640.51 449.17 636.60 C 431.51 631.23 413.91 622.69 402.12 608.05 C 392.28 596.48 386.84 581.88 384.23 567.08 C 382.07 550.06 383.34 532.88 385.27 515.91 C 391.10 481.65 398.71 447.73 406.98 413.98 C 409.67 400.47 413.68 387.27 417.04 373.91 C 423.64 352.53 430.65 330.88 443.21 312.13 C 447.81 304.64 453.43 297.86 459.50 291.51 C 463.33 286.62 468.42 283.01 473.28 279.23 C 485.59 269.68 500.03 262.83 515.24 259.41 Z" />
<path fill="#0b5585" opacity="1.00" d=" M 680.41 262.22 C 738.26 261.77 796.13 262.24 853.99 262.12 C 885.32 262.11 916.66 262.19 948.00 262.27 C 949.92 261.78 949.60 263.92 949.32 265.03 C 946.76 277.03 943.60 288.90 941.32 300.96 C 939.49 310.40 937.14 319.73 934.89 329.08 C 925.34 330.28 915.65 329.52 906.04 329.81 C 887.05 330.15 868.05 329.84 849.06 330.08 C 845.70 340.25 844.12 350.87 841.46 361.23 C 833.57 397.54 825.42 433.80 817.05 470.01 C 808.48 507.32 800.70 544.83 792.10 582.14 C 787.19 582.01 782.28 582.20 777.38 581.86 C 780.50 562.39 785.41 543.29 789.39 523.99 C 793.58 506.41 796.67 488.59 801.06 471.05 C 805.53 450.65 810.43 430.35 814.83 409.93 C 816.54 402.69 818.43 395.39 818.95 387.96 C 819.05 382.93 813.87 378.59 809.00 380.71 C 805.44 383.17 802.83 386.73 800.05 389.99 C 794.52 397.14 788.33 403.75 782.43 410.59 C 770.07 425.79 757.25 440.60 744.71 455.64 C 739.02 462.02 734.08 469.03 728.32 475.34 C 725.19 478.70 722.62 482.66 718.86 485.37 C 722.89 465.46 727.49 445.67 732.14 425.89 C 737.85 401.25 743.41 376.57 749.14 351.93 C 750.81 344.54 752.84 337.23 754.19 329.77 C 724.76 330.19 695.32 330.07 665.89 330.19 C 667.36 319.64 670.11 309.31 672.31 298.90 C 674.65 286.59 678.29 274.57 680.41 262.22 Z" />
<path fill="#0b5585" opacity="1.00" d=" M 465.11 466.24 C 471.62 464.66 476.85 460.01 480.87 454.84 C 476.74 475.95 471.86 496.92 467.94 518.09 C 466.55 527.95 464.65 538.16 467.28 547.99 C 468.11 552.11 469.82 555.97 471.09 559.96 C 464.54 560.05 457.53 557.88 453.72 552.24 C 448.76 542.32 452.51 531.13 454.33 520.92 C 458.19 502.74 461.54 484.47 465.11 466.24 Z" />
</g>
<g id="#b15d2dff">
<path fill="#b15d2d" opacity="1.00" d=" M 649.09 624.74 C 668.77 624.42 688.51 625.12 708.21 624.89 C 707.22 631.26 705.81 637.55 704.68 643.89 C 704.21 645.97 704.15 648.22 703.01 650.09 C 696.35 649.60 689.67 649.92 683.00 649.86 C 670.28 649.65 657.55 649.34 644.83 649.60 C 646.00 641.27 648.61 633.16 649.09 624.74 Z" />
<path fill="#b15d2d" opacity="1.00" d=" M 723.22 626.01 C 743.20 625.90 763.18 626.08 783.16 625.98 C 780.99 633.86 780.19 642.08 778.00 649.95 C 770.70 649.49 763.39 649.85 756.09 649.73 C 743.67 649.97 731.24 649.53 718.83 649.85 C 720.56 641.96 721.96 633.99 723.22 626.01 Z" />
<path fill="#b15d2d" opacity="1.00" d=" M 641.03 665.66 C 685.07 665.67 729.12 665.60 773.16 665.75 C 771.11 672.79 770.17 680.16 768.89 687.39 C 731.93 687.71 694.94 687.28 657.97 687.45 C 650.92 687.38 643.86 687.75 636.82 687.41 C 638.06 680.12 639.42 672.86 641.03 665.66 Z" />
</g>
</svg>
