<svg width="140" height="74" viewBox="0 0 140 74" fill="none" xmlns="http://www.w3.org/2000/svg">
<path d="M32.6494 0.677031C35.3324 0.598807 38.0573 0.46044 40.705 0.98476C41.0101 1.03531 41.3381 1.03863 41.6123 1.1984C41.9839 1.27072 42.3588 1.33381 42.7225 1.43971C43.1004 1.63047 43.5507 1.61498 43.9223 1.82899C44.1471 1.90573 44.373 1.97953 44.6022 2.05037C44.9503 2.22232 45.3111 2.36991 45.6704 2.52377C46.9801 3.01415 48.0996 3.87092 49.2377 4.65943C50.9375 6.01248 52.0927 7.87619 53.3778 9.59195C53.4678 9.73807 53.6037 9.84433 53.768 9.90115C56.1957 6.85818 59.2892 4.33657 62.8301 2.67469C63.0902 2.58392 63.3517 2.4902 63.5981 2.36253C63.8132 2.27951 64.0302 2.19649 64.2498 2.12085C65.6791 1.5659 67.1776 1.19692 68.6887 0.937161C68.7336 0.908012 68.825 0.85082 68.8715 0.823147C69.4366 0.764848 70.011 0.791045 70.5732 0.6881C72.4822 0.571134 74.3976 0.588107 76.3081 0.678876C77.2555 0.775548 78.1829 0.992508 79.1259 1.12608C80.2112 1.41536 81.3121 1.66885 82.3744 2.05037C82.8681 2.30091 83.3946 2.48245 83.8836 2.74221C84.0527 2.80973 84.2184 2.88685 84.3856 2.96507C84.7723 3.20639 85.1766 3.42187 85.5667 3.66466C86.0653 3.90597 86.4417 4.3196 86.892 4.63176C87.2142 4.78267 87.3843 4.52733 87.5021 4.26905C87.5857 3.94914 87.663 3.62924 87.7329 3.30638C87.9186 2.92522 87.9465 2.49315 88.1167 2.10572C88.1371 1.65188 88.6279 1.5552 88.9995 1.5814C100.721 1.49063 112.447 1.56738 124.169 1.5076C124.238 1.49063 124.376 1.45816 124.446 1.44303C128.168 1.38436 131.892 1.38584 135.615 1.36592C135.899 1.36444 136.182 1.38584 136.47 1.40466C136.471 1.44894 136.475 1.53823 136.476 1.58435C136.455 2.43005 136.224 3.24956 136.083 4.07976C135.143 8.95251 134.152 13.8157 133.146 18.6777C132.992 19.3249 132.98 20.006 132.74 20.6303C132.655 20.8318 132.378 20.758 132.209 20.792C128.233 20.792 124.254 20.7702 120.278 20.8012C119.795 20.7444 119.597 21.2454 119.513 21.6236C117.157 33.1941 114.738 44.7535 112.343 56.3147C111.744 56.3254 111.143 56.3269 110.545 56.3162C110.807 54.3005 111.305 52.3198 111.703 50.3273C113.831 39.8963 115.966 29.4667 118.151 19.0482C122.216 18.9928 126.285 19.0666 130.353 19.0098C130.704 19.0098 131.175 18.9482 131.255 18.5301C131.491 17.5907 131.707 16.6435 131.858 15.6871C132.585 11.963 133.33 8.24075 134.112 4.52881C134.134 4.32735 134.14 4.11998 134.092 3.92295C133.776 3.67093 133.348 3.7355 132.974 3.71558C118.784 3.71226 104.594 3.7248 90.4036 3.72001C89.9439 3.64916 89.5769 3.98752 89.4717 4.40889C89.0905 5.94053 88.8646 7.50721 88.4808 9.037C88.0364 8.80492 87.8908 8.18983 87.3628 8.11603C87.3765 7.91604 87.3149 7.7286 87.1629 7.59798C85.5173 5.84644 83.317 4.6871 81.0227 4.01224C78.5515 3.24181 75.9488 2.93113 73.3632 2.9588C68.9908 2.88685 64.5411 3.90782 60.8159 6.22796C58.0832 7.90534 55.8026 10.2731 54.1473 13.001C52.9844 14.972 52.1499 17.1184 51.5461 19.319C51.3618 20.0293 51.0924 20.7289 51.0352 21.4653L51.1746 21.6144C50.738 23.3903 50.3649 25.1817 49.9871 26.9727C49.8678 26.8654 49.75 26.7591 49.6326 26.6532C50.0458 24.8419 50.3787 23.0121 50.848 21.213C51.4502 18.3792 52.2911 15.4624 51.7241 12.5549C51.1667 9.50155 49.0812 6.8829 46.4447 5.29297C43.0599 3.27723 39.0096 2.72671 35.1236 2.77616C32.1244 2.76509 29.1439 3.3156 26.3011 4.24912C22.9509 5.45126 19.8897 7.47807 17.5861 10.1856C14.9399 13.1854 13.1795 16.9247 12.498 20.8503C11.992 23.4903 12.057 26.2565 12.87 28.8302C13.6487 31.04 15.0357 33.0354 16.8582 34.5224C18.3291 35.8187 20.0152 36.8319 21.6486 37.9097C22.5745 38.5141 23.5732 39.0151 24.4434 39.7011C18.6635 39.6948 12.8822 39.687 7.10091 39.6918C6.73716 39.7025 6.21067 39.6763 6.06651 40.0992C5.69199 41.4862 5.72134 42.9407 5.5664 44.3598C5.5664 44.5889 5.29109 44.6258 5.14247 44.738C4.35106 45.1395 3.51508 45.4575 2.75786 45.9221C2.2035 46.3571 2.37702 47.1537 2.49146 47.7504C3.04581 50.2151 3.5801 52.6888 4.36816 55.0923C4.50451 55.4303 4.64236 55.855 5.03546 55.9716C6.19655 56.3269 7.44756 55.7517 8.60123 56.1022C9.26556 56.659 9.87379 57.3372 10.2843 58.1013C10.1186 59.0253 9.40935 59.7573 9.2128 60.6735C9.09056 61.3502 9.70361 61.8314 10.1851 62.1926C12.0213 63.449 13.904 64.6574 15.9338 65.5831C16.4929 65.8259 17.2067 65.9307 17.7313 65.5507C18.4715 64.9633 19.0009 64.1161 19.848 63.6597C20.557 63.5014 21.3019 63.7596 21.938 64.0655C22.4474 64.9758 22.4708 66.1672 23.2682 66.907C23.9555 67.2561 24.7807 66.9808 25.5131 66.9207C27.6993 66.544 29.9026 66.258 32.078 65.8215C32.5811 65.7385 33.1354 65.4201 33.1726 64.8618C33.2469 63.7766 33.3104 62.6892 33.3706 61.6037C33.4096 61.1993 33.8741 61.1041 34.1806 60.9628C37.3514 59.7389 39.9976 57.4246 41.956 54.6923C44.3265 51.3051 45.229 47.2043 46.217 43.2665C46.302 42.7625 46.4908 42.2625 46.4756 41.7489L46.3221 41.6474L46.3255 41.6367C46.3871 41.626 46.5127 41.6061 46.5762 41.5954C46.6907 41.2002 46.7665 40.7944 46.833 40.3899C46.8843 40.6497 46.7029 41.0604 47.005 41.2002L46.9987 41.2279C46.9415 41.257 46.8256 41.3139 46.768 41.343C46.3392 43.1543 45.9628 44.9889 45.7525 46.8401C45.7882 46.9382 45.8562 47.1353 45.8904 47.2338C45.5155 47.4504 45.6411 47.9208 45.5805 48.2791C45.3639 50.155 45.4519 52.0814 45.9446 53.9112C46.655 56.4498 48.2282 58.7238 50.3074 60.3506C52.9008 62.4402 56.0627 63.7165 59.2844 64.4943C62.6659 65.3492 66.1789 65.4278 69.6488 65.354C73.874 65.1603 78.1565 64.1777 81.7858 61.9528C85.1751 59.9186 87.7265 56.5867 88.8352 52.8164C89.6575 50.1642 90.23 47.4426 90.6484 44.7011C90.8572 43.5373 90.8542 42.3411 90.7785 41.1648C90.2999 38.9816 89.2718 36.9333 87.8815 35.1822C86.7869 33.8704 84.9551 33.314 83.2847 33.5136C82.4639 33.6136 81.7936 34.1321 81.0535 34.4442C80.0488 34.6132 79.0189 34.5472 78.0049 34.587C76.6811 34.6409 75.3064 34.4195 74.0319 34.887C72.6524 35.356 71.5143 36.3769 70.6925 37.5514C70.118 38.3218 69.8438 39.2568 69.5837 40.1667C69.2259 41.7721 69.0264 43.4126 68.5791 44.9981C68.3078 45.9959 67.331 46.8814 66.2424 46.7139C65.642 46.6371 65.5844 45.9313 65.6494 45.4608C65.8107 44.2598 66.2145 43.1067 66.4438 41.9197C66.8837 39.9793 67.2783 38.0296 67.5941 36.0662C67.6498 35.6419 67.794 35.239 67.9827 34.8575C67.9333 33.9719 68.1626 33.1063 68.3298 32.2436C68.74 30.3511 68.9629 28.4243 69.3036 26.5207C69.4585 25.6551 70.2681 25.154 70.5932 24.3792C70.6304 24.339 70.7062 24.2593 70.7448 24.2205C71.5701 23.7194 72.1757 22.7999 73.2023 22.6815C73.083 23.6718 72.7746 24.6249 72.5814 25.6012C72.4993 26.0503 72.4792 26.5687 72.7794 26.9484C73.6281 28.0092 74.7427 28.8088 75.7288 29.7346C76.0911 30.0559 76.4704 30.4323 76.9876 30.4633C78.1472 30.5799 79.3161 30.5847 80.482 30.5969C84.0976 30.6186 87.7128 30.6002 91.3265 30.4895C91.8311 30.4526 92.4969 30.4939 92.7696 29.9711C93.1471 29.1671 93.2247 28.2631 93.4413 27.4096C93.7772 25.7551 94.2309 24.1268 94.5207 22.4616C96.0255 22.3756 97.5351 22.4295 99.0414 22.4387C98.8682 23.9268 98.4112 25.3662 98.1452 26.8392C96.1247 36.5843 94.0715 46.325 92.1097 56.0823C92.0911 56.1454 92.051 56.2683 92.0324 56.3299C91.2786 56.3513 90.5243 56.2871 89.7734 56.3468C89.2763 56.3867 89.0582 56.9033 88.8103 57.2601C86.9927 60.4307 84.1192 62.9615 80.7856 64.4806C76.3174 66.5842 71.3022 67.2377 66.4003 67.1775C63.9555 67.0192 61.5062 66.793 59.1172 66.2351C56.0812 65.506 53.1129 64.3685 50.5136 62.6265C48.0067 60.9687 46.0483 58.5548 44.8158 55.8362C44.6624 55.5118 44.5431 55.1351 44.1965 54.9646L44.1515 54.9322C44.1066 54.9093 44.02 54.8661 43.9765 54.8433C43.43 55.4904 42.9811 56.21 42.4424 56.8634C40.6151 59.0253 38.3825 60.8657 35.8325 62.1265C35.5059 62.2941 35.128 62.4804 35.0181 62.8616C34.7658 63.8072 34.9159 64.8127 34.6759 65.7614C34.4544 66.527 33.7143 67.0052 32.9619 67.162C31.1164 67.5775 29.2382 67.8155 27.379 68.1601C26.0488 68.3398 24.725 68.7014 23.3733 68.6121C22.3995 68.4907 21.8377 67.5989 21.3064 66.8808C21.0062 66.5318 20.8234 66.0075 20.3296 65.8905L20.311 65.8828C20.1144 65.8754 19.9473 65.9366 19.8109 66.0691C19.2658 66.5502 18.8137 67.1561 18.1527 67.4926C17.5162 67.7789 16.7917 67.6125 16.1864 67.3328C13.7308 66.2473 11.4113 64.8773 9.18493 63.3859C8.99916 63.2398 8.76545 63.1907 8.53769 63.1538C7.98668 62.6848 7.49884 62.1372 7.06375 61.5591C7.35653 61.2901 7.33015 60.8812 7.40892 60.5274C7.52373 59.8496 7.91832 59.2651 8.1197 58.6164C8.262 58.1858 7.88116 57.68 7.4197 57.7154C6.64427 57.6814 5.86847 57.76 5.09268 57.7231C4.68249 57.7261 4.23663 57.6353 3.86954 57.8674C3.7707 57.8353 3.6715 57.8014 3.57527 57.7659C3.14353 57.4401 2.81508 57.0081 2.57989 56.5269C2.49146 56.2653 2.40786 56.0055 2.33057 55.7425C2.07346 54.8399 1.92336 53.9068 1.64172 53.012C1.55478 52.529 1.36752 52.0741 1.24528 51.6018C1.18657 51.3435 1.12898 51.0837 1.03164 50.8376C0.825797 49.9676 0.636678 49.0927 0.405945 48.2315C0.245064 47.2183 -0.217887 46.1726 0.121338 45.1516C0.714332 43.9477 2.09984 43.6078 3.25016 43.165C3.7629 42.6654 3.62951 41.8105 3.79225 41.1541C4.04937 40.2468 3.94236 39.2243 4.49968 38.4189C4.73971 38.0311 5.11274 37.6975 5.57123 37.6023C6.28015 37.4562 7.00951 37.5023 7.72808 37.4577C10.6789 37.213 13.6424 37.3994 16.5996 37.3023C16.688 37.2979 16.863 37.2854 16.9511 37.2794C17.0425 37.0688 16.7218 37.0396 16.5888 37.0101C16.3767 36.8334 16.16 36.6629 15.9386 36.4998C14.121 35.1253 12.6207 33.334 11.5662 31.3212C11.4733 31.1075 11.3711 30.8968 11.2533 30.6969C11.0817 30.1648 10.851 29.6545 10.699 29.118C10.4003 28.1815 10.1959 27.2067 10.1294 26.2241C9.99157 23.6534 10.0815 21.0377 10.8461 18.5607C11.2318 17.2494 11.642 15.9314 12.2491 14.7031C13.7817 11.4387 15.965 8.44036 18.7642 6.13572C20.6625 4.51959 22.8531 3.24513 25.1865 2.35921C25.4094 2.28394 25.6323 2.20867 25.8523 2.12417C26.5319 1.79652 27.2813 1.67032 27.9935 1.44598C29.5217 1.06483 31.0807 0.820195 32.6494 0.677031Z" fill="#EEC20D"/>
<path d="M136.084 4.079C136.225 3.24879 136.456 2.42929 136.477 1.58359C136.531 1.67288 136.641 1.8511 136.697 1.94187C136.451 3.9624 135.94 5.94566 135.579 7.94922C134.78 11.9947 133.929 16.0306 133.142 20.0791C133.069 20.4314 133.026 21.0709 132.517 21C128.432 21.0078 124.349 20.9941 120.266 21.0063C119.915 20.9524 119.813 21.3399 119.757 21.5981C117.391 33.2653 114.937 44.914 112.544 56.5752C111.759 56.5461 110.975 56.5335 110.193 56.563C112.756 43.9672 115.346 31.3757 117.954 18.7876C122.137 18.7721 126.32 18.7921 130.504 18.7847C130.728 18.7891 131.021 18.7459 131.06 18.474C131.295 17.4176 131.487 16.352 131.715 15.2927C131.75 15.3912 131.823 15.5878 131.859 15.6864C131.708 16.6428 131.492 17.5899 131.257 18.5293C131.176 18.9474 130.705 19.009 130.354 19.009C126.286 19.0658 122.217 18.992 118.152 19.0474C115.967 29.4659 113.832 39.8955 111.704 50.3265C111.307 52.319 110.808 54.2997 110.546 56.3154C111.144 56.3261 111.745 56.3247 112.344 56.314C114.739 44.7527 117.158 33.1933 119.514 21.6229C119.598 21.2447 119.796 20.7436 120.279 20.8004C124.255 20.7694 128.234 20.7912 132.21 20.7912C132.379 20.7572 132.656 20.831 132.741 20.6296C132.981 20.0053 132.994 19.3241 133.147 18.6769C134.153 13.8149 135.144 8.95174 136.084 4.079Z" fill="#E1D768"/>
<path d="M136.695 1.94492C137.138 2.2984 137.501 2.80279 137.773 3.30571C137.51 3.07805 137.24 2.85962 136.974 2.64007C136.689 3.23044 136.669 3.89608 136.508 4.52335C135.495 9.7005 134.416 14.8636 133.401 20.0393C133.322 20.3515 133.272 20.6788 133.111 20.9618C132.958 21.223 132.619 21.2045 132.359 21.2186C128.381 21.2108 124.403 21.2152 120.428 21.2186C120.015 21.137 119.997 21.623 119.93 21.8964C119.542 24.1999 118.929 26.4647 118.614 28.7804C118.029 30.9807 117.625 33.2255 117.167 35.4564C115.863 41.7637 114.548 48.0707 113.232 54.3766C113.067 55.099 112.986 55.8462 112.74 56.5506C112.657 56.8258 112.302 56.7982 112.076 56.8273C111.472 56.8336 110.862 56.8657 110.266 56.769C109.874 56.5904 110.06 56.1045 110.107 55.7864C112.533 43.93 114.945 32.0706 117.422 20.2253C117.504 19.781 117.538 19.3213 117.71 18.8999C117.896 18.5139 118.367 18.5092 118.738 18.5062C122.755 18.5339 126.771 18.5246 130.786 18.5032C131.382 15.9171 131.815 13.2969 132.387 10.7045C132.792 8.61201 133.243 6.52691 133.653 4.43442C133.758 4.20529 133.455 4.16359 133.298 4.16211C118.997 4.16359 104.695 4.16654 90.3951 4.15584C89.8597 4.11304 89.869 4.80008 89.7605 5.15836C89.4042 6.58668 89.3317 8.07994 88.8454 9.47579L88.6641 9.50974C88.8948 7.90135 89.302 6.32249 89.5918 4.72481C89.649 4.3883 89.7899 3.85771 90.242 3.93925C104.798 3.94515 119.353 3.91933 133.907 3.95143C133.932 4.68643 133.679 5.38307 133.555 6.09778C132.952 9.16548 132.295 12.2236 131.713 15.2957C131.485 16.355 131.293 17.4207 131.058 18.477C131.019 18.749 130.727 18.7922 130.502 18.7877C126.319 18.7951 122.135 18.7752 117.952 18.7907C115.344 31.3788 112.754 43.9702 110.192 56.5661C110.973 56.5366 111.757 56.5491 112.542 56.5783C114.936 44.917 117.39 33.2683 119.755 21.6012C119.811 21.3429 119.913 20.9555 120.265 21.0094C124.348 20.9972 128.431 21.0108 132.515 21.0031C133.024 21.0739 133.068 20.4345 133.14 20.0821C133.927 16.0337 134.779 11.9978 135.577 7.95227C135.938 5.94871 136.449 3.96545 136.695 1.94492ZM89.0806 63.611C92.8864 63.5018 96.697 63.5726 100.504 63.5066C99.9945 63.8649 99.3383 63.6863 98.7591 63.7295C95.7692 63.8125 92.7782 63.7726 89.7884 63.8003C89.5528 63.7693 89.2076 63.8785 89.0806 63.611ZM102.593 63.5881C103.274 63.5003 103.962 63.5202 104.647 63.5188C106.767 63.5221 108.888 63.5173 111.009 63.5081C110.988 63.5542 110.944 63.6479 110.923 63.694C108.312 63.7771 105.696 63.6881 103.084 63.7571C102.887 63.7848 102.724 63.728 102.593 63.5881Z" fill="#0B232D"/>
<path d="M136.506 4.52155C136.667 3.89428 136.687 3.22864 136.972 2.63828C137.238 2.85782 137.508 3.07625 137.771 3.30391C138.361 4.01752 138.881 4.81525 139.284 5.64878C139.426 6.2052 139.754 6.72362 139.728 7.31399C139.699 8.61944 139.327 9.88319 139.164 11.1731C139.005 12.1081 138.733 13.0243 138.661 13.973C138.612 15.1201 138.168 16.1964 137.951 17.3159C137.67 18.4952 137.534 19.7021 137.336 20.8939C136.91 22.0562 136.817 23.3 136.483 24.4856C136.282 24.8686 135.916 25.1744 135.483 25.256C134.915 25.4527 134.32 25.1837 133.744 25.3512C131.169 25.4405 128.587 25.3327 126.012 25.3973C125.221 25.5342 124.419 25.4925 123.623 25.539L123.507 25.6973C123.432 25.7973 123.366 25.9032 123.298 26.0061C122.799 26.6891 122.852 27.5839 122.671 28.3757C122.023 31.6047 121.447 34.8472 120.729 38.0625C120.435 39.2278 120.3 40.424 120.028 41.5926C119.512 43.1858 119.232 44.851 119.018 46.507C119.009 46.6745 119.004 46.8435 119.003 47.0125L118.96 47.0863C118.579 47.646 118.591 48.3504 118.416 48.984C118.114 50.5798 117.71 52.1576 117.506 53.7718C117.422 54.4991 117.109 55.1695 116.974 55.8861C116.803 56.7517 116.609 57.6188 116.544 58.5014C116.516 58.6922 116.555 58.9029 116.467 59.0826C116.046 59.8006 116.106 60.6662 115.877 61.4474C115.451 63.0126 115.253 64.6272 114.87 66.2031C114.799 66.8891 114.437 67.5071 114.401 68.1989C114.361 68.9937 114.07 69.7413 113.924 70.5176C113.85 70.8836 113.694 71.308 113.306 71.4434C112.415 71.7755 111.45 71.5508 110.527 71.5784C108.589 71.6231 106.65 71.6264 104.712 71.6493C99.8875 71.657 95.0615 71.643 90.2369 71.657C89.7944 71.6725 89.3979 71.4493 89.0123 71.2666C87.9675 70.2855 87.1095 69.1155 86.0566 68.1406C85.315 68.2543 84.7327 68.8679 84.0112 69.0893C82.4815 69.6306 80.9938 70.2977 79.4162 70.6992C77.5938 71.2633 75.694 71.5401 73.7973 71.7124C72.7814 71.8692 71.7534 71.7862 70.7316 71.8124C68.081 71.8552 65.4259 71.56 62.8432 70.9681C61.3121 70.6589 59.8597 70.0534 58.3345 69.7214C56.6978 69.2277 55.1993 68.3713 53.7161 67.5411C51.0357 65.891 48.8235 63.6092 46.8911 61.157C45.8429 62.0488 44.9958 63.162 43.8875 63.9893C42.5202 65.1622 40.9842 66.1279 39.3572 66.8998C39.015 67.0595 38.5862 67.3042 38.6077 67.7377C38.5598 68.7723 38.7006 69.8365 38.3941 70.8453C38.1942 71.3002 37.7547 71.591 37.2869 71.7201C35.8256 72.1658 34.2911 72.2872 32.8108 72.6518C30.8167 73.0315 28.807 73.5466 26.7586 73.3606C25.91 72.9485 25.3791 72.109 24.6947 71.4862C24.2815 71.1279 23.9995 70.6468 23.5845 70.2933C23.3664 70.204 23.1851 70.4224 22.987 70.4744C22.8262 70.5132 22.7362 70.6161 22.7191 70.7822L22.7006 70.8438C22.2718 70.836 22.1262 71.2434 21.8631 71.4895C21.5332 71.657 21.1958 71.8094 20.8595 71.9644C20.3334 71.9245 19.8812 71.6002 19.4012 71.408C18.6146 71.0881 17.9258 70.587 17.153 70.2424C16.2192 69.8151 15.3431 69.2708 14.4837 68.7111C13.9992 68.4019 13.6076 67.9145 13.0068 67.83L12.9061 67.8023C12.4198 67.3673 11.7989 67.0241 11.4679 66.4555C11.4337 66.2924 11.336 66.1987 11.1736 66.174C10.9165 66.1002 10.7693 65.8497 10.5791 65.6788C10.1734 65.2161 9.66844 64.8302 9.36526 64.2859C9.5789 64.2641 9.78623 64.3165 9.96271 64.4365C12.0839 65.7142 14.1943 67.0536 16.5243 67.93C17.1095 68.1668 17.7924 68.179 18.3575 67.8824C19.1006 67.5256 19.5714 66.8138 20.248 66.3707C20.4664 66.4323 20.5731 66.6614 20.7124 66.8245C21.2794 67.6163 21.8211 68.5451 22.7842 68.9063C23.7316 69.2908 24.763 69.0247 25.7335 68.8985C28.101 68.4694 30.4838 68.1207 32.845 67.6577C33.6546 67.4746 34.5419 67.1149 34.9168 66.3216C35.4615 65.253 35.1456 63.9952 35.4986 62.8882C35.9493 62.4776 36.5594 62.2993 37.0747 61.9827C39.4159 60.6157 41.52 58.8258 43.1659 56.6731C43.4647 56.2599 43.7589 55.8429 44.0811 55.4478C44.8227 56.8454 45.5164 58.283 46.5132 59.5253C49.3418 63.1188 53.6462 65.2084 57.9845 66.4186C59.5903 66.7876 61.1928 67.2226 62.8432 67.3333C65.4025 67.6824 68.0022 67.7086 70.5752 67.4964C74.161 67.209 77.7331 66.4076 80.9968 64.8807C84.2345 63.397 87.0631 61.0016 88.9194 57.9664C89.1624 57.5945 89.3466 57.1761 89.661 56.8561C90.5189 56.6473 91.4247 56.9222 92.2837 56.7134C92.4108 56.5702 92.4788 56.3872 92.5271 56.206C93.9126 49.6035 95.2413 42.9873 96.6424 36.3863C96.9118 35.6346 96.9768 34.8395 97.1704 34.0724C97.7091 30.9279 98.4336 27.816 99.0824 24.6933C99.2481 23.8384 99.536 22.9971 99.5145 22.1178C98.5485 21.9285 97.5605 22.0425 96.5837 22.0038C95.7785 22.0178 94.9641 21.947 94.1683 22.1071C93.6481 24.4225 93.1261 26.7382 92.6074 29.0554C92.51 29.4874 92.3242 30.0501 91.7744 30.0195C88.4271 30.0885 85.0783 30.1623 81.7291 30.1302C80.0649 30.1084 78.3785 30.2114 76.7329 29.9564C75.6784 29.1185 74.666 28.2156 73.6888 27.2854C73.3622 26.9688 72.9334 26.6212 72.9706 26.1201C73.1329 24.9623 73.5264 23.8443 73.6813 22.6868C73.6657 22.5835 73.633 22.3761 73.616 22.2732L73.6022 22.1931C73.5836 22.1514 73.5465 22.0684 73.5279 22.027C72.3111 22.2839 71.2967 23.0941 70.4964 24.0059C69.9684 24.6147 69.3461 25.1759 69.0425 25.9386C68.6461 26.8751 68.6524 27.9082 68.4774 28.8952C67.9617 32.0198 67.2899 35.1166 66.7493 38.2363C66.3484 40.3565 65.8732 42.463 65.3575 44.5588C65.2446 45.0521 65.1022 45.5565 65.1639 46.0687C65.2289 46.6712 65.7632 47.2343 66.3997 47.211C67.508 47.2586 68.4789 46.4362 68.8999 45.4643C69.702 43.1873 69.6062 40.6624 70.6788 38.4714C71.6252 36.6003 73.5216 35.121 75.6784 35.0395C77.2839 35.0351 78.8897 35.041 80.4922 34.9875C81.5296 34.9841 82.2786 34.1215 83.2807 33.9772C84.8305 33.8001 86.5552 34.2617 87.5584 35.5099C88.8636 37.163 89.8408 39.0909 90.296 41.1468C90.3547 42.1693 90.3561 43.2024 90.254 44.2234C89.8501 47.131 89.2292 50.0108 88.3776 52.8232C86.9888 57.4052 83.3238 61.1352 78.8957 62.9281C77.8817 63.2358 76.9265 63.717 75.8906 63.9583C74.4415 64.301 72.9813 64.6394 71.4903 64.7316C70.7193 64.7656 69.9636 64.9792 69.1863 64.9268C67.1937 64.8918 65.1702 65.084 63.2085 64.6486C62.5724 64.5612 61.9266 64.5763 61.295 64.452C58.5901 63.9121 55.8804 63.1956 53.4512 61.858C50.7927 60.4803 48.3977 58.4155 47.1018 55.6876C45.9373 53.3859 45.8337 50.7322 46.0161 48.2121C46.3817 44.7924 47.227 41.4527 47.8835 38.0825C48.3977 35.673 48.8759 33.2558 49.3931 30.8464C50.2618 26.961 50.9492 23.031 52.0501 19.1992C53.0269 15.7168 54.668 12.345 57.2399 9.7463C60.6492 6.05613 65.5741 3.92675 70.5644 3.53157C71.4409 3.42678 72.3233 3.35151 73.2072 3.38066C73.7694 3.36849 74.3609 3.47623 74.8859 3.21462C74.8997 3.21462 74.9275 3.21794 74.9416 3.21942C75.0962 3.40391 75.2928 3.49615 75.5328 3.49615C77.0595 3.58545 78.5891 3.76994 80.0616 4.19426C81.404 4.58021 82.7527 4.99827 83.9603 5.71335C85.5706 6.77417 86.9947 8.08884 88.2521 9.54336C88.3078 9.54041 88.4207 9.53118 88.4765 9.52639C88.5229 9.52196 88.6158 9.51274 88.6622 9.50794L88.8436 9.47399C89.3299 8.07814 89.4024 6.58488 89.7587 5.15656C89.8672 4.79828 89.8579 4.11124 90.3933 4.15404C104.694 4.16474 118.995 4.16179 133.297 4.16032C133.453 4.16179 133.757 4.20349 133.651 4.43262C133.241 6.52511 132.79 8.61021 132.385 10.7027C131.813 13.2951 131.38 15.9153 130.784 18.5014C126.769 18.5228 122.753 18.5321 118.737 18.5044C118.365 18.5074 117.894 18.5121 117.709 18.8981C117.537 19.3195 117.502 19.7792 117.42 20.2235C114.943 32.0688 112.531 43.9282 110.105 55.7846C110.058 56.1027 109.873 56.5886 110.264 56.7672C110.86 56.8639 111.47 56.8318 112.074 56.8255C112.3 56.7964 112.655 56.824 112.738 56.5488C112.985 55.8444 113.065 55.0972 113.231 54.3748C114.547 48.0689 115.861 41.7619 117.165 35.4546C117.623 33.2237 118.027 30.9789 118.613 28.7786C118.927 26.4629 119.54 24.1981 119.929 21.8946C119.995 21.6212 120.014 21.1352 120.426 21.2168C124.402 21.2134 128.379 21.209 132.357 21.2168C132.617 21.2027 132.956 21.2212 133.109 20.96C133.27 20.677 133.32 20.3497 133.399 20.0375C134.415 14.8618 135.494 9.6987 136.506 4.52155ZM60.239 33.8263C61.0516 33.4296 62.0069 34.0108 62.1666 34.852C62.2395 35.8959 61.2158 36.7416 60.2186 36.7464C59.5498 36.7231 59.0575 36.0929 59.0512 35.4609C59.1166 34.7535 59.5962 34.1215 60.239 33.8263ZM60.4293 33.5311C59.5034 33.7665 58.819 34.6904 58.8223 35.6284C58.9289 36.0929 59.1534 36.594 59.6148 36.8047C60.6801 37.3689 62.0039 36.477 62.3197 35.4269C62.6927 34.3705 61.49 33.1684 60.4293 33.5311ZM56.7847 35.6132C56.6391 33.0101 59.4168 30.8925 61.9158 31.3401C63.2999 31.6939 64.2815 33.0208 64.4702 34.3908C64.6653 35.8667 63.972 37.4198 62.747 38.2777C62.1852 38.702 61.5086 38.9326 60.8536 39.1709C60.4913 41.173 60.0871 43.167 59.6891 45.1628C59.4974 46.1225 59.2574 47.0756 59.1567 48.0519C59.1597 48.9175 59.4398 49.8739 60.1907 50.3909C61.0657 50.9521 62.1246 51.144 63.1512 51.155C64.9923 51.2347 66.9522 51.1779 68.5967 50.2507C69.9019 49.5157 70.7052 48.1242 70.9731 46.6867C71.3432 44.6278 71.7534 42.5766 72.1327 40.521C72.4612 38.799 73.9953 37.1692 75.8505 37.2368C77.6959 37.2227 79.5444 37.2368 81.3918 37.1936C81.8577 37.1984 82.1304 36.7755 82.4878 36.5464C83.1258 36.0265 84.019 35.8915 84.8041 36.108C85.5487 36.3619 86.168 37.0032 86.3445 37.7718C86.4095 38.3422 86.4266 38.9603 86.1216 39.4724C85.5598 40.6011 83.9989 41.0162 82.9043 40.4351C82.4091 40.1904 82.0371 39.7691 81.5913 39.454C80.0352 39.451 78.4792 39.434 76.9231 39.451C75.9727 39.434 74.9896 39.9108 74.5095 40.7424C74.3159 41.1099 74.1982 41.5129 74.1038 41.9154C73.7215 43.6456 73.4614 45.3982 73.1627 47.1435C72.8205 49.0471 71.7132 50.8182 70.0673 51.8745C68.2437 53.1475 65.9427 53.4442 63.7673 53.4383C62.0938 53.3427 60.3364 53.1984 58.8654 52.3203C57.3342 51.4779 56.5246 49.6005 56.8557 47.9091C57.458 44.9171 58.1271 41.9372 58.7695 38.9544C57.6701 38.1961 56.687 37.0216 56.7847 35.6132ZM91.8505 6.28527C91.3363 8.52535 90.8392 10.7702 90.3747 13.0214C90.1473 13.9379 90.3888 14.957 90.8982 15.7337C91.3969 15.8289 91.9077 15.7954 92.4138 15.8046C95.3015 15.7876 98.1892 15.8415 101.076 15.7828C101.739 15.7983 102.405 15.7153 103.068 15.8027C102.672 18.3262 101.959 20.7876 101.513 23.3015C100.481 28.2971 99.4138 33.285 98.3794 38.2806C98.3623 39.0156 98.0792 39.7108 98.0513 40.4425C98.1286 40.507 98.2865 40.6362 98.3657 40.7026C97.9365 40.9837 97.5854 41.3915 97.4925 41.9066C97.034 43.9592 96.6205 46.0211 96.1624 48.0737C96.0695 48.601 95.6994 49.0563 95.7351 49.6083C95.7228 50.6137 95.3249 51.5546 95.1514 52.5358C94.8694 53.6534 94.6297 54.7821 94.4005 55.9123C94.3354 56.1507 94.3618 56.5842 94.7148 56.544C98.7944 56.5565 102.876 56.5119 106.957 56.5366C107.208 56.5318 107.481 56.4905 107.679 56.3211C107.926 55.8046 107.926 55.2142 108.132 54.6836C108.414 53.9039 108.432 53.0723 108.595 52.2682C108.847 51.2381 108.956 50.1754 109.307 49.1714C109.436 48.1242 109.67 47.0955 109.899 46.0672C109.972 45.838 109.944 45.5934 109.801 45.3997L109.752 45.606C109.699 45.572 109.594 45.5045 109.541 45.4705L109.581 45.2875C108.801 45.2123 108.014 45.2584 107.233 45.2477C107.389 44.3802 107.491 43.5024 107.705 42.646C107.719 42.932 107.691 43.2456 107.827 43.5101C108.236 43.6655 108.691 43.6024 109.123 43.6301C109.5 43.6116 109.92 43.7009 110.263 43.4961C110.622 42.2169 110.952 40.924 111.159 39.6093C111.851 36.2925 112.531 32.9762 113.214 29.6594C113.386 28.6093 113.731 27.5961 113.834 26.5352C114.519 23.3262 115.189 20.1172 115.853 16.9038C115.946 16.5178 115.906 15.892 116.419 15.8153C118.529 15.726 120.644 15.7629 122.757 15.7644C124.807 15.7396 126.859 15.8644 128.909 15.7444C129.234 15.1341 129.28 14.4375 129.427 13.7763C129.821 12.0295 130.143 10.2706 130.589 8.53642C130.688 7.72761 130.996 6.94168 130.951 6.12071C129.926 6.02994 128.898 6.1362 127.871 6.09451C117.081 6.10705 106.29 6.10853 95.4995 6.10226C94.2812 6.10853 93.0551 6.06388 91.8505 6.28527ZM90.0203 59.115L89.9322 59.1102C89.5636 59.5346 89.6208 60.1589 89.4566 60.6755C89.3206 61.5459 89.0279 62.4023 88.9829 63.2804L89.1159 63.3601C89.1066 63.4232 89.088 63.5461 89.0788 63.6092C89.2058 63.8767 89.551 63.7675 89.7866 63.7985C92.7764 63.7708 95.7674 63.8107 98.7573 63.7277C99.3365 63.6845 99.9927 63.8631 100.502 63.5048C100.555 63.4524 100.662 63.3494 100.714 63.2971L100.888 63.2325C101.06 62.6067 101.129 61.9566 101.292 61.3289C101.434 60.5681 101.733 59.8191 101.654 59.0335C100.905 58.8675 100.134 58.952 99.3752 58.9365C96.331 58.9567 93.2858 58.9106 90.2432 58.9597C90.1875 58.9981 90.076 59.0767 90.0203 59.115ZM103.297 59.0305C102.927 60.1297 102.806 61.2905 102.534 62.4163C102.47 62.7945 102.257 63.2727 102.591 63.5863C102.722 63.7262 102.885 63.783 103.082 63.7553C105.694 63.6863 108.31 63.7753 110.921 63.6922C110.942 63.6461 110.986 63.5524 111.007 63.5063L111.076 63.4432C111.405 63.3601 111.36 62.9329 111.467 62.6775C111.664 61.5736 111.989 60.4958 112.165 59.3888C112.248 59.0719 111.86 58.9258 111.608 58.9427C109.39 58.8951 107.171 58.9534 104.954 58.9291C104.399 58.9258 103.84 58.9029 103.297 59.0305ZM88.5571 65.5021C88.5307 65.5666 88.4783 65.6973 88.4534 65.7618L88.4334 65.6375C88.3669 65.7375 88.232 65.9371 88.1655 66.0371C88.1157 66.0216 88.0154 65.988 87.9656 65.971C88.0462 66.3924 88.1421 66.8138 88.1391 67.2455C88.297 67.3824 88.4471 67.5732 88.6857 67.5241C90.5932 67.5392 92.5007 67.5071 94.4083 67.5163C94.9455 67.5425 94.9236 66.9119 95.0213 66.543C95.0258 66.2341 95.2691 65.8342 95.0243 65.5744L95.0522 65.4482C94.9578 65.1884 94.6297 65.2501 94.4191 65.2316C92.6616 65.2622 90.9046 65.236 89.1471 65.2685C88.9506 65.3176 88.5571 65.187 88.5571 65.5021ZM96.7988 65.3405C96.4782 65.9725 96.3218 66.7168 96.4596 67.4178C96.8482 67.5363 97.2584 67.5241 97.6627 67.5008C101.541 67.5008 105.418 67.4857 109.297 67.5008C109.52 67.4857 109.76 67.5208 109.973 67.4333C110.103 67.4241 110.363 67.4042 110.493 67.3935C110.721 66.7415 110.979 66.0264 110.788 65.3346C110.142 65.1807 109.476 65.2375 108.82 65.2331C105.674 65.2283 102.526 65.2423 99.3796 65.2482C98.5187 65.2608 97.6504 65.1807 96.7988 65.3405ZM27.0373 4.50162C29.2112 3.84041 31.4654 3.36849 33.746 3.32089C36.3223 3.18252 38.9206 3.31314 41.449 3.83893C44.1505 4.42487 46.7596 5.6842 48.6808 7.69071C50.6657 9.74335 51.6659 12.6524 51.4664 15.4832C51.1814 17.4975 50.8362 19.5054 50.2863 21.4673C48.3123 30.0011 46.9717 38.6728 44.7327 47.1479C43.9261 50.0632 42.8189 52.9771 40.8854 55.3526C39.0165 57.6974 36.536 59.5641 33.7245 60.6511C33.3265 60.8002 32.8651 61.057 32.8866 61.5459C32.8387 62.5897 32.7599 63.6339 32.7321 64.6811C32.7614 65.1316 32.2628 65.3346 31.8897 65.3977C30.7981 65.5895 29.705 65.7836 28.6041 65.9279C27.4568 65.9681 26.3715 66.3939 25.2256 66.4677C24.6423 66.4813 23.9702 66.74 23.4377 66.426C22.8707 65.6113 22.7485 64.5874 22.309 63.7107C21.6353 63.2509 20.7403 63.1465 19.9414 63.0989C18.7476 63.5048 18.1844 64.8025 17.0957 65.3593C16.3092 65.4681 15.6575 64.8733 15.0225 64.5025C14.5488 64.1476 13.9234 64.1166 13.4479 63.766C12.5948 63.1727 11.6581 62.7004 10.8578 62.0333C10.4227 61.678 9.7461 61.4459 9.64838 60.8264C9.85125 59.8976 10.5791 59.1564 10.7244 58.214C10.6921 57.293 9.84047 56.7672 9.36972 56.0676C9.15905 55.7186 8.72879 55.5769 8.34164 55.5448C7.27343 55.5016 6.19742 55.6599 5.13367 55.5293C4.88436 55.2404 4.79928 54.8559 4.67518 54.5054C3.99413 52.2911 3.46764 50.0341 2.9798 47.7722C2.92258 47.311 2.74609 46.762 3.05114 46.3517C3.87338 45.6536 5.04525 45.5211 5.85188 44.8031C6.24387 44.202 5.97746 43.4423 6.13686 42.7796C6.31335 42.0877 6.36313 41.376 6.38468 40.6657C6.3505 40.3594 6.64774 40.1119 6.9435 40.1458C12.8255 40.1366 18.709 40.1506 24.591 40.1414C24.8188 40.1428 25.0231 40.072 25.2041 39.9292C25.2427 39.906 25.3189 39.8628 25.3575 39.8414C25.2847 39.8093 25.1405 39.7429 25.0677 39.7108C24.9733 39.2831 24.5308 39.1248 24.2053 38.9064C21.5424 37.3013 18.839 35.7051 16.5321 33.6082C14.3043 31.5537 12.8348 28.6403 12.7527 25.6002C12.4525 22.4053 13.1105 19.1656 14.3771 16.2271C16.6436 10.7687 21.3318 6.27457 27.0373 4.50162Z" fill="#08436F"/>
<path d="M26.3016 4.24998C29.1443 3.31646 32.1249 2.76595 35.124 2.77702C39.0101 2.72757 43.0603 3.27809 46.4451 5.29383C49.0817 6.88376 51.1672 9.50241 51.7245 12.5557C52.2915 15.4633 51.4507 18.3801 50.8484 21.2138C50.3791 23.013 50.0462 24.8427 49.633 26.6541C49.438 27.143 49.5011 27.778 49.1032 28.1606C49.6702 25.235 50.3141 22.3241 51.0249 19.4305C51.3901 17.6712 51.7602 15.8861 51.6922 14.0811C51.59 11.2783 50.1889 8.59804 48.0629 6.77454C45.9465 4.92337 43.2324 3.86698 40.4747 3.40428C37.4339 2.86004 34.3111 2.89361 31.2547 3.29027C28.5654 3.69946 25.8899 4.42672 23.4993 5.74583C17.0585 9.1563 12.8284 16.1245 12.4413 23.3222C12.2819 24.4398 12.4461 25.5685 12.5977 26.6784C13.0172 29.7107 14.7129 32.5105 17.0923 34.4325C19.3636 36.2977 21.9106 37.7891 24.4018 39.3374C24.6173 39.4728 24.8384 39.6004 25.0706 39.7111C25.1434 39.7432 25.2876 39.8097 25.3604 39.8418C25.3218 39.8632 25.2456 39.9063 25.207 39.9296C18.9705 39.8986 12.734 39.9218 6.49757 39.917C6.39391 40.0233 6.29173 40.1307 6.1877 40.2399C6.10893 41.573 5.84104 42.8906 5.85033 44.23C5.83955 44.4592 5.73106 44.7005 5.51259 44.8082C4.67214 45.2739 3.73992 45.5694 2.93032 46.0952C2.40383 46.4487 2.64088 47.1575 2.71036 47.6726C3.25691 50.133 3.799 52.6007 4.58706 54.9976C4.70447 55.3359 4.82671 55.8064 5.26662 55.8296C6.2947 55.9127 7.32427 55.7374 8.35235 55.7573C8.82459 55.785 9.10325 56.2185 9.3912 56.5351C9.78467 56.9905 10.17 57.4532 10.5307 57.9343C10.4613 58.9353 9.73637 59.7257 9.42836 60.6529C9.26264 61.3049 9.90691 61.6831 10.345 62.0182C12.1659 63.3007 14.0638 64.4907 16.1014 65.4054C16.4993 65.5777 16.9809 65.6962 17.3944 65.5238C18.2939 64.9014 18.8713 63.8727 19.873 63.3882C20.6317 63.259 21.3733 63.6188 22.1075 63.7741C22.4062 64.5523 22.6414 65.3549 22.9665 66.1238C23.0891 66.388 23.23 66.6832 23.5149 66.8108C24.2439 66.9123 24.9777 66.7662 25.6978 66.6555C27.706 66.3419 29.7128 66.019 31.7147 65.6714C32.1713 65.5855 32.7858 65.4947 32.9345 64.9737C32.9843 63.8435 33.1188 62.7178 33.1202 61.5861C33.0939 61.202 33.4624 60.9913 33.7801 60.8884C36.7016 59.8257 39.2129 57.8284 41.1312 55.419C42.7724 53.4047 43.819 50.9875 44.5826 48.5305C45.2636 46.2627 45.8209 43.961 46.3225 41.6483L46.476 41.7497C46.4912 42.2634 46.3025 42.7633 46.2174 43.2674C45.2294 47.2051 44.3269 51.306 41.9564 54.6932C39.998 57.4255 37.3518 59.7397 34.181 60.9636C33.8745 61.1049 33.4101 61.2001 33.371 61.6045C33.3108 62.6901 33.2473 63.7775 33.173 64.8626C33.1358 65.4209 32.5815 65.7393 32.0784 65.8223C29.903 66.2589 27.6997 66.5448 25.5135 66.9215C24.7812 66.9817 23.956 67.2569 23.2686 66.9079C22.4712 66.1681 22.4478 64.9766 21.9384 64.0664C21.3024 63.7605 20.5574 63.5022 19.8485 63.6605C19.0013 64.1169 18.4719 64.9641 17.7318 65.5515C17.2071 65.9316 16.4934 65.8268 15.9342 65.584C13.9044 64.6582 12.0218 63.4498 10.1856 62.1934C9.70405 61.8322 9.09099 61.3511 9.21323 60.6743C9.40978 59.7582 10.1191 59.0261 10.2848 58.1022C9.87422 57.338 9.26599 56.6598 8.60166 56.1031C7.44799 55.7525 6.19698 56.3278 5.03589 55.9724C4.64279 55.8558 4.50495 55.4311 4.36859 55.0932C3.58053 52.6896 3.04624 50.216 2.49189 47.7512C2.37745 47.1546 2.20394 46.3579 2.75829 45.9229C3.51551 45.4584 4.3515 45.1403 5.1429 44.7389C5.29152 44.6267 5.56684 44.5898 5.56684 44.3606C5.72177 42.9416 5.69242 41.487 6.06694 40.1C6.2111 39.6772 6.73759 39.7034 7.10134 39.6927C12.8827 39.6879 18.664 39.6956 24.4438 39.7019C23.5736 39.016 22.5749 38.5149 21.649 37.9105C20.0157 36.8327 18.3296 35.8195 16.8586 34.5233C15.0362 33.0363 13.6492 31.0409 12.8704 28.831C12.0574 26.2574 11.9924 23.4912 12.4985 20.8511C13.1799 16.9255 14.9403 13.1863 17.5865 10.1865C19.8901 7.47892 22.9513 5.45212 26.3016 4.24998Z" fill="#E1D870"/>
<path d="M31.2536 3.28924C34.31 2.89259 37.4328 2.85901 40.4736 3.40326C43.2313 3.86596 45.9454 4.92235 48.0618 6.77352C50.1878 8.59701 51.5889 11.2773 51.6911 14.0801C51.7591 15.8851 51.389 17.6702 51.0238 19.4295C50.313 22.3231 49.6691 25.2339 49.1021 28.1596C49.0464 28.4134 48.994 28.6702 48.9505 28.9271C48.8253 29.4281 48.7231 29.9325 48.6485 30.4432C47.8901 34.178 47.1329 37.9124 46.3248 41.6366L46.3214 41.6473C45.8198 43.96 45.2625 46.2617 44.5815 48.5295C43.8179 50.9865 42.7713 53.4037 41.1301 55.4179C39.2118 57.8274 36.7005 59.8247 33.779 60.8873C33.4613 60.9903 33.0928 61.201 33.1191 61.5851C33.1177 62.7167 32.9832 63.8425 32.9334 64.9727C32.7848 65.4937 32.1702 65.5844 31.7136 65.6704C29.7117 66.018 27.7049 66.3408 25.6967 66.6545C24.9766 66.7652 24.2428 66.9113 23.5138 66.8098C23.2289 66.6822 23.088 66.387 22.9654 66.1228C22.6403 65.3538 22.4051 64.5513 22.1064 63.7731C21.3722 63.6178 20.6306 63.258 19.8719 63.3872C18.8702 63.8716 18.2928 64.9003 17.3933 65.5228C16.9798 65.6951 16.4982 65.5767 16.1003 65.4044C14.0627 64.4897 12.1648 63.2997 10.3439 62.0171C9.90581 61.6821 9.26154 61.3039 9.42725 60.6519C9.73527 59.7247 10.4602 58.9343 10.5296 57.9333C10.1689 57.4521 9.78357 56.9894 9.3901 56.5341C9.10215 56.2175 8.82349 55.784 8.35125 55.7563C7.32317 55.7364 6.2936 55.9116 5.26552 55.8286C4.82561 55.8054 4.70337 55.3349 4.58596 54.9966C3.7979 52.5997 3.25581 50.1319 2.70926 47.6716C2.63978 47.1565 2.40273 46.4477 2.92922 46.0942C3.73882 45.5684 4.67104 45.2729 5.51149 44.8072C5.72996 44.6995 5.83845 44.4581 5.84923 44.229C5.83994 42.8896 6.10783 41.572 6.18659 40.2389C6.29063 40.1296 6.3928 40.0223 6.49647 39.916C12.7329 39.9208 18.9694 39.8976 25.2059 39.9286C25.0249 40.0713 24.8206 40.1422 24.5928 40.1407C18.7108 40.1499 12.8273 40.1359 6.9453 40.1451C6.64955 40.1112 6.35231 40.3588 6.38649 40.665C6.36494 41.3753 6.31515 42.0871 6.13866 42.7789C5.97927 43.4416 6.24567 44.2013 5.85369 44.8024C5.04705 45.5204 3.87518 45.6529 3.05294 46.351C2.7479 46.7613 2.92438 47.3104 2.9816 47.7716C3.46945 50.0334 3.99594 52.2905 4.67699 54.5047C4.80108 54.8552 4.88617 55.2397 5.13548 55.5286C6.19923 55.6593 7.27524 55.501 8.34344 55.5441C8.7306 55.5762 9.16085 55.7179 9.37152 56.067C9.84228 56.7666 10.6939 57.2924 10.7262 58.2133C10.5809 59.1557 9.85305 59.897 9.65018 60.8257C9.7479 61.4452 10.4245 61.6773 10.8596 62.0326C11.6599 62.6998 12.5966 63.1721 13.4497 63.7654C13.9252 64.1159 14.5506 64.1469 15.0243 64.5019C15.6593 64.8727 16.311 65.4675 17.0975 65.3586C18.1862 64.8018 18.7494 63.5041 19.9432 63.0983C20.7421 63.1459 21.6371 63.2503 22.3108 63.71C22.7503 64.5867 22.8725 65.6106 23.4395 66.4253C23.972 66.7393 24.6441 66.4807 25.2274 66.467C26.3733 66.3932 27.4586 65.9674 28.6059 65.9272C29.7068 65.783 30.7999 65.5889 31.8915 65.397C32.2646 65.3339 32.7632 65.131 32.7339 64.6804C32.7617 63.6333 32.8405 62.5891 32.8884 61.5452C32.8669 61.0563 33.3283 60.7995 33.7263 60.6504C36.5378 59.5634 39.0182 57.6968 40.8871 55.3519C42.8207 52.9764 43.9279 50.0626 44.7345 47.1473C46.9735 38.6722 48.3141 30.0004 50.2881 21.4667C50.838 19.5048 51.1832 17.4968 51.4681 15.4825C51.6677 12.6517 50.6675 9.7427 48.6826 7.69006C46.7614 5.68355 44.1523 4.42422 41.4508 3.83829C38.9224 3.31249 36.3241 3.18187 33.7478 3.32024C31.4672 3.36784 29.213 3.83976 27.0391 4.50097C21.3336 6.27392 16.6454 10.7681 14.3789 16.2264C13.1123 19.165 12.4543 22.4046 12.7545 25.5996C12.8366 28.6396 14.3061 31.5531 16.5339 33.6076C18.8408 35.7045 21.5442 37.3007 24.2071 38.9057C24.5326 39.1242 24.9751 39.2825 25.0695 39.7101C24.8373 39.5994 24.6162 39.4718 24.4007 39.3363C21.9095 37.7881 19.3625 36.2967 17.0912 34.4315C14.7118 32.5095 13.0161 29.7097 12.5966 26.6774C12.445 25.5675 12.2808 24.4388 12.4402 23.3211C12.8273 16.1235 17.0574 9.15528 23.4982 5.7448C25.8888 4.4257 28.5643 3.69844 31.2536 3.28924Z" fill="#0F2D2B"/>
<path d="M60.8158 6.22592C64.541 3.90578 68.9907 2.88481 73.3631 2.95676C75.9487 2.92909 78.5514 3.23977 81.0226 4.0102C83.3169 4.68506 85.5172 5.8444 87.1628 7.59594C87.3148 7.72656 87.3765 7.914 87.3627 8.11399C86.2276 6.92403 84.9194 5.89052 83.4239 5.18355C80.7855 3.92423 77.8548 3.35674 74.944 3.21689C74.9299 3.21542 74.9021 3.2121 74.8883 3.2121C71.7171 3.05085 68.4858 3.35674 65.4561 4.32863C60.1745 6.00601 55.6784 9.95594 53.3856 14.9715C52.3605 17.078 51.7504 19.352 51.1745 21.6124L51.0352 21.4633C51.0924 20.7268 51.3617 20.0272 51.546 19.3169C52.1498 17.1164 52.9843 14.97 54.1473 12.9989C55.8025 10.271 58.0831 7.9033 60.8158 6.22592Z" fill="#E1D771"/>
<path d="M65.4551 4.33269C68.4848 3.3608 71.7161 3.05491 74.8873 3.21616C74.3623 3.47777 73.7708 3.37002 73.2086 3.3822C72.3247 3.35305 71.4423 3.42832 70.5658 3.53311C65.5755 3.92829 60.6506 6.05767 57.2413 9.74784C54.6694 12.3466 53.0283 15.7183 52.0515 19.2007C50.9506 23.0326 50.2632 26.9626 49.3945 30.8479C48.8773 33.2574 48.3991 35.6746 47.8849 38.084C47.2284 41.4543 46.3831 44.7939 46.0175 48.2136C45.8351 50.7337 45.9387 53.3874 47.1032 55.6891C48.3991 58.417 50.7941 60.4818 53.4526 61.8596C55.8818 63.1971 58.5915 63.9137 61.2964 64.4535C61.928 64.5778 62.5738 64.5627 63.2099 64.6502C65.1716 65.0856 67.1951 64.8933 69.1877 64.9284C69.965 64.9808 70.7207 64.7671 71.4917 64.7332C72.9827 64.6409 74.4429 64.3026 75.892 63.9598C76.9279 63.7185 77.8831 63.2373 78.8971 62.9296C83.3252 61.1367 86.9902 57.4067 88.379 52.8247C89.2306 50.0124 89.8515 47.1325 90.2554 44.2249C90.3575 43.204 90.356 42.1708 90.2973 41.1484C89.8422 39.0924 88.865 37.1645 87.5598 35.5115C86.5566 34.2632 84.8318 33.8016 83.2821 33.9787C82.28 34.123 81.531 34.9857 80.4936 34.989C78.8911 35.0425 77.2853 35.0366 75.6798 35.041C73.523 35.1226 71.6266 36.6018 70.6803 38.4729C69.6076 40.6639 69.7034 43.1888 68.9013 45.4658C68.4803 46.4377 67.5094 47.2602 66.4011 47.2126C65.7646 47.2358 65.2303 46.6727 65.1653 46.0702C65.1036 45.558 65.246 45.0536 65.3589 44.5603C65.8746 42.4645 66.3498 40.358 66.7507 38.2379C67.2913 35.1181 67.9631 32.0213 68.4788 28.8968C68.6538 27.9097 68.6475 26.8766 69.0439 25.9401C69.3475 25.1775 69.9698 24.6162 70.4978 24.0074C71.2981 23.0957 72.3125 22.2854 73.5293 22.0286C73.5479 22.0699 73.585 22.1529 73.6036 22.1946C72.4919 22.4481 71.6481 23.22 70.7887 23.9089C70.778 23.9875 70.7546 24.1443 70.7438 24.2225C70.7051 24.2613 70.6293 24.341 70.5922 24.3812C70.1107 24.6041 69.8457 25.09 69.5333 25.4911C68.9154 26.3014 68.9462 27.3607 68.7712 28.3156C68.3365 31.4339 67.6116 34.5045 67.0822 37.6073C66.6408 40.0075 66.1239 42.3937 65.5246 44.7599C65.4195 45.2492 65.2411 45.7687 65.4273 46.2624C65.5432 46.6727 65.9363 47.0233 66.3825 46.9974C67.4429 47.031 68.4045 46.2576 68.7512 45.2891C69.459 42.9981 69.4419 40.5012 70.4978 38.3146C71.326 36.8431 72.6547 35.5561 74.3036 35.0532C75.1518 34.7691 76.0547 34.8458 76.9357 34.8366C78.1198 34.8381 79.3062 34.8041 80.4903 34.7875C81.4348 34.7982 82.1021 33.9879 83.0016 33.8108C84.6524 33.5234 86.5243 33.9772 87.6374 35.2794C89.0307 36.983 90.0309 39.005 90.5325 41.1406C90.5931 42.3199 90.6068 43.5161 90.4073 44.6865C90.0837 46.8558 89.6564 49.0132 89.0801 51.1319C88.6714 52.7033 88.1884 54.27 87.3911 55.6969C86.2315 57.9558 84.4447 59.8608 82.3592 61.3091C78.8276 63.7399 74.5139 64.7642 70.2808 65.0929C66.9164 65.2438 63.5164 65.1531 60.2107 64.455C57.2599 63.82 54.3428 62.8267 51.8129 61.1585C49.2693 59.5302 47.1726 57.1038 46.2839 54.1992C45.5642 51.9469 45.6586 49.5559 45.8893 47.2358C46.1832 45.2215 46.5938 43.2257 46.9976 41.2299L47.004 41.2022C47.9919 36.4586 48.9735 31.7139 49.986 26.9748C50.3639 25.1837 50.7369 23.3923 51.1735 21.6164C51.7494 19.3561 52.3595 17.082 53.3846 14.9755C55.6774 9.96 60.1736 6.01007 65.4551 4.33269ZM60.0933 31.6936C61.1459 31.3464 62.4173 31.4984 63.1943 32.3397C64.5214 33.6142 64.5816 35.8638 63.4343 37.2689C62.9405 37.9423 62.2204 38.4175 61.4372 38.6958C61.118 38.8496 60.6551 38.9419 60.5871 39.3525C60.1349 41.8542 59.5976 44.3389 59.1102 46.8343C58.8252 47.883 58.8546 49.0836 59.4847 50.0065C59.9692 50.7275 60.8412 51.0289 61.6508 51.2285C62.7562 51.4455 63.8943 51.4208 65.0167 51.3916C66.5635 51.347 68.1689 50.9658 69.3891 49.9769C70.4759 49.0884 71.0488 47.7291 71.261 46.3746C71.4947 44.9186 71.8324 43.484 72.0724 42.0295C72.3047 41.0698 72.3418 40.0182 72.9348 39.1865C73.5508 38.2821 74.5187 37.4505 75.6783 37.4767C77.5409 37.4427 79.405 37.4796 81.2676 37.4165C82.2927 37.4228 82.8266 36.1941 83.8796 36.2712C85.2483 36.0804 86.5023 37.501 86.0984 38.8249C85.8521 40.1152 84.2526 40.8517 83.09 40.2517C82.435 39.9861 82.0404 39.188 81.2631 39.2448C79.7706 39.2216 78.2796 39.2157 76.7885 39.2404C75.5899 39.2448 74.3746 40.0027 74.0588 41.1882C73.4736 43.3054 73.283 45.5042 72.7906 47.6398C72.3388 49.5083 71.0395 51.1426 69.3289 52.0359C67.8565 52.931 66.0883 53.1398 64.3944 53.166C62.5719 53.1893 60.6506 53.0491 59.0374 52.1281C57.9413 51.5222 57.1807 50.3769 57.0507 49.1408C56.9548 48.0243 57.3126 46.9465 57.5136 45.8625C57.8699 44.0759 58.2987 42.3029 58.6766 40.5211C58.7572 39.9507 59.011 39.3787 58.8794 38.7991C58.6101 38.4485 58.2058 38.2316 57.9116 37.9039C57.2877 37.1984 56.9333 36.2527 57.0291 35.3085C57.0663 33.5728 58.4767 32.1597 60.0933 31.6936ZM74.943 3.22096C77.8538 3.3608 80.7845 3.92829 83.4229 5.18762C84.9184 5.89458 86.2266 6.92809 87.3617 8.11805C87.6961 8.6147 88.0985 9.06375 88.4779 9.52792C88.4221 9.53272 88.3092 9.54194 88.2534 9.5449C86.9961 8.09038 85.572 6.7757 83.9617 5.71489C82.7541 4.99981 81.4054 4.58175 80.063 4.1958C78.5905 3.77147 77.0609 3.58698 75.5342 3.49769C75.2942 3.49769 75.0976 3.40544 74.943 3.22096ZM94.1696 22.1087C94.9655 21.9485 95.7799 22.0194 96.5851 22.0053C97.5619 22.0441 98.5498 21.9301 99.5159 22.1194C99.5374 22.9986 99.2495 23.8399 99.0838 24.6948C98.435 27.8175 97.7105 30.9295 97.1718 34.0739C96.9782 34.841 96.9132 35.6362 96.6438 36.3878C95.2427 42.9888 93.914 49.605 92.5285 56.2075C92.4802 56.3887 92.4122 56.5717 92.2851 56.7149C91.4261 56.9237 90.5203 56.6488 89.6624 56.8577C89.348 57.1776 89.1637 57.596 88.9208 57.9679C87.0645 61.0032 84.2359 63.3986 80.9982 64.8822C77.7345 66.4091 74.1624 67.2105 70.5766 67.4979C68.0036 67.7101 65.4039 67.6839 62.8446 67.3349C61.1942 67.2242 59.5917 66.7891 57.9859 66.4202C53.6476 65.2099 49.3432 63.1204 46.5146 59.5269C45.5178 58.2845 44.8241 56.847 44.0825 55.4493C43.7603 55.8445 43.4661 56.2614 43.1673 56.6747C41.5214 58.8273 39.4173 60.6172 37.0761 61.9843C36.5608 62.3009 35.9507 62.4791 35.5 62.8898C35.1471 63.9967 35.4629 65.2545 34.9182 66.3231C34.5433 67.1164 33.656 67.4762 32.8464 67.6592C30.4852 68.1223 28.1025 68.4709 25.735 68.9001C24.7645 69.0263 23.733 69.2923 22.7856 68.9078C21.8225 68.5466 21.2808 67.6179 20.7138 66.826C20.5745 66.6629 20.4679 66.4338 20.2494 66.3722C19.5728 66.8153 19.102 67.5271 18.3589 67.8839C17.7938 68.1806 17.1109 68.1684 16.5257 67.9315C14.1957 67.0552 12.0853 65.7158 9.96414 64.438C9.78765 64.3181 9.58033 64.2657 9.36668 64.2875H9.29237C8.3988 63.1543 7.44503 62.0717 6.4946 60.9862C6.2204 60.6847 5.88898 60.422 5.71881 60.0438C6.061 60.3279 6.34895 60.6881 6.77178 60.8618C7.02257 59.956 7.5799 59.1487 7.71143 58.2141C6.7885 58.0864 5.85516 58.1646 4.9274 58.1646C4.65654 58.1277 4.45702 58.2985 4.3006 58.4971C4.07433 58.2369 3.82985 57.9956 3.57422 57.7679C3.67045 57.8034 3.76965 57.8373 3.86849 57.8694C5.08866 58.0646 6.32555 57.8451 7.55055 57.9248C7.92656 58.017 8.03654 58.483 7.83516 58.786C7.3971 59.6516 7.00214 60.5711 7.0627 61.5611C7.49779 62.1393 7.98563 62.6868 8.53664 63.1558C9.48892 63.9661 10.588 64.5764 11.6502 65.2313C13.2356 66.1678 14.8552 67.0644 16.574 67.7393C17.238 68.016 18.0509 67.9407 18.619 67.4872C19.2247 67.0013 19.7864 66.4585 20.3099 65.8848L20.3285 65.8925C20.8624 66.7153 21.4201 67.5315 22.0904 68.2496C22.7421 68.8908 23.7252 68.9938 24.5895 68.834C27.2137 68.4451 29.8257 67.982 32.4377 67.5149C33.413 67.381 34.5277 66.9581 34.8591 65.9401C35.1099 65.0084 35.0791 64.0292 35.1749 63.0772C35.189 62.7237 35.5 62.547 35.7865 62.4145C39.2085 60.76 42.0913 58.1 44.1505 54.9342L44.1954 54.9667C45.3364 57.9724 47.3354 60.6862 49.9831 62.5529C54.3677 65.5973 59.7247 66.9998 65.0167 67.3087C66.5527 67.4548 68.1058 67.4717 69.6447 67.3301C72.9021 67.1751 76.1476 66.5537 79.2021 65.4114C81.5276 64.504 83.7804 63.3049 85.6013 61.5828C87.2454 60.2051 88.4284 58.3971 89.5386 56.5916C90.4025 56.644 91.2775 56.6872 92.1365 56.5595L92.248 56.5474C92.2885 56.3241 92.3316 56.1013 92.3765 55.8799C93.804 48.9715 95.2115 42.0586 96.6717 35.158C97.5619 30.8372 98.438 26.5154 99.3981 22.2101C97.7012 22.2238 96.0044 22.1806 94.309 22.23C94.1154 23.5277 93.7702 24.7948 93.4975 26.0756C93.2389 27.198 93.0286 28.3326 92.7373 29.4488C92.6738 29.758 92.4542 29.9949 92.2543 30.2255C87.7641 30.3129 83.271 30.4731 78.7812 30.3221C78.0752 30.276 77.3596 30.3207 76.6629 30.19C75.6627 29.3934 74.7138 28.5278 73.7693 27.667C73.4056 27.3164 72.9998 26.9781 72.7784 26.5169C72.6792 26.063 72.8107 25.6051 72.9177 25.1653C73.1641 24.2059 73.3234 23.2233 73.6173 22.2747C73.6344 22.3776 73.6671 22.585 73.6827 22.6883C73.5278 23.8458 73.1343 24.9638 72.972 26.1217C72.9348 26.6227 73.3636 26.9703 73.6902 27.2869C74.6674 28.2171 75.6798 29.12 76.7343 29.958C78.3799 30.2129 80.0663 30.11 81.7305 30.1317C85.0797 30.1638 88.4284 30.09 91.7757 30.021C92.3256 30.0517 92.5114 29.489 92.6088 29.0569C93.1274 26.7397 93.6495 24.424 94.1696 22.1087ZM56.5599 34.9735C56.9132 32.501 59.5898 30.6313 62.0532 31.1494C63.9143 31.7029 65.0431 33.8142 64.7366 35.6716C64.4345 36.4819 64.1049 37.3184 63.4733 37.9364C62.8134 38.622 61.9358 39.0326 61.05 39.3492C60.6335 41.6004 60.1955 43.8467 59.7325 46.0886C59.5174 47.1694 59.1596 48.3442 59.6675 49.4006C60.1676 50.4692 61.4558 50.7658 62.524 50.9167C64.4809 51.0182 66.5635 51.0625 68.3503 50.1386C69.3828 49.5973 70.1712 48.6501 70.5131 47.5417C70.9559 46.3222 70.9979 45.0123 71.3104 43.7622C71.6418 42.3723 71.7039 40.9115 72.227 39.5725C72.6528 38.5744 73.455 37.7287 74.4411 37.2645C75.0248 37.0047 75.6798 37.0398 76.3055 37.0213C77.9559 37.0136 79.6093 36.997 81.2598 36.9708C81.7041 36.9815 82.014 36.6188 82.3529 36.3911C83.3965 35.5085 85.1833 35.6314 86.0379 36.7155C86.9593 37.7966 86.7193 39.6647 85.5255 40.4551C84.914 40.8639 84.1411 40.9683 83.4244 40.8517C82.7478 40.6993 82.2321 40.2167 81.6919 39.8182C81.4455 39.5909 81.094 39.6614 80.7909 39.6492C79.402 39.6629 78.0117 39.5876 76.6228 39.6691C75.6211 39.7507 74.8037 40.5624 74.4894 41.476C74.1765 42.735 73.8406 43.9976 73.7474 45.2968C73.7106 45.8687 73.5044 46.4115 73.4178 46.9757C73.3015 47.9505 72.885 48.853 72.5075 49.7482C71.7176 50.9197 70.6279 51.8683 69.4077 52.5801C67.3266 53.5704 64.9565 53.7856 62.6804 53.5874C61.4851 53.4797 60.2947 53.2461 59.1923 52.7602C57.6236 52.0591 56.5212 50.3876 56.5784 48.67C56.6111 47.3908 56.9949 46.161 57.2272 44.9123C57.6362 43.3626 57.8807 41.7742 58.2523 40.2167C58.3466 39.8274 58.5094 39.4385 58.4503 39.0326C58.2879 38.7806 58.0044 38.6423 57.7893 38.4423C56.8199 37.5796 56.3819 36.245 56.5599 34.9735ZM109.419 32.7592L109.535 32.7533C109.529 33.7817 109.094 34.7414 109.018 35.762C108.502 38.0423 108.191 40.361 107.706 42.6475C107.493 43.5039 107.391 44.3817 107.234 45.2492C107.168 45.2584 107.036 45.2769 106.969 45.2861C107.867 41.127 108.459 36.9062 109.419 32.7592ZM101.253 41.4849C103.103 40.1304 104.862 38.6589 106.672 37.2519L106.841 37.1966C106.319 39.3603 106.039 41.5756 105.519 43.739C104.116 42.9505 102.643 42.2937 101.253 41.4849ZM99.2803 43.2685L99.4182 43.3364C101.354 44.3157 103.298 45.2813 105.184 46.3499C102.56 48.0151 99.9417 49.6895 97.3453 51.3979C97.9442 48.6778 98.6892 45.9901 99.2803 43.2685ZM99.9617 52.3403C102.49 50.7828 105.034 49.2453 107.534 47.6432C107.042 49.7666 106.587 51.9052 106.15 54.0438C103.325 54.0365 100.499 54.0272 97.6734 54.0826C97.4642 54.1763 97.3096 54.0472 97.1718 53.9287C97.4612 53.8365 97.7213 53.6797 97.9784 53.5195C97.9598 53.6044 97.9227 53.7749 97.9056 53.8594C100.507 53.8273 103.11 53.8534 105.71 53.8273C106.057 53.8273 106.087 53.4107 106.142 53.1568C106.367 51.4916 106.918 49.8847 107.123 48.218C104.186 49.9124 101.375 51.827 98.4165 53.4811L98.1519 53.4583C98.7029 53.0122 99.3658 52.7247 99.9617 52.3403ZM89.458 60.677C89.6222 60.1604 89.565 59.5361 89.9336 59.1118C89.921 59.2335 89.8979 59.4778 89.8872 59.5992C89.8823 59.6224 89.8745 59.6715 89.8715 59.6948C89.5524 60.9017 89.3202 62.1315 89.1173 63.3617L88.9843 63.282C89.0292 62.4038 89.322 61.5474 89.458 60.677ZM95.0257 65.5759C95.2705 65.8357 95.0272 66.2357 95.0227 66.5445C94.925 66.9135 94.9469 67.5441 94.4097 67.5179C92.5021 67.5086 90.5946 67.5407 88.687 67.5256C88.4485 67.5747 88.2984 67.3839 88.1405 67.247C88.1435 66.8153 88.0476 66.394 87.967 65.9726C88.0168 65.9896 88.1171 66.0231 88.1669 66.0386C88.2334 65.9386 88.3683 65.739 88.4348 65.639L88.4548 65.7634C88.3619 66.2862 88.2954 66.8135 88.2676 67.3441C90.4196 67.3577 92.5731 67.3426 94.7255 67.3242C94.7533 67.095 94.7797 66.8674 94.8057 66.6401L94.812 66.5862C94.8927 66.2508 94.9562 65.9124 95.0257 65.5759Z" fill="#041919"/>
<path d="M89.4722 4.40641C89.5773 3.98503 89.9444 3.64668 90.4041 3.71752C104.594 3.72232 118.784 3.70977 132.974 3.71309C133.349 3.73302 133.777 3.66845 134.092 3.92046C134.14 4.1175 134.134 4.32486 134.112 4.52632C133.33 8.23826 132.586 11.9605 131.858 15.6846C131.823 15.5861 131.75 15.3895 131.714 15.2909C132.296 12.2188 132.953 9.16071 133.557 6.09301C133.68 5.3783 133.933 4.68167 133.908 3.94666C119.354 3.91456 104.799 3.94039 90.2432 3.93448C89.791 3.85294 89.6502 4.38353 89.593 4.72004C89.3031 6.31772 88.8959 7.89658 88.6652 9.50497C88.6188 9.50976 88.5259 9.51899 88.4794 9.52342C88.1001 9.05924 87.6977 8.61019 87.3633 8.11354C87.8913 8.18734 88.0369 8.80243 88.4813 9.03452C88.8651 7.50473 89.091 5.93804 89.4722 4.40641Z" fill="#E6E286"/>
<path d="M30.1542 5.60736C31.5632 5.1786 33.0497 5.19705 34.5018 5.03839C38.3726 4.93544 42.5235 5.38892 45.7549 7.69689C47.201 8.61491 48.2227 10.0694 48.8826 11.6239C49.4028 12.9386 49.4273 14.3776 49.3686 15.7709C49.2215 17.4531 48.6036 19.0474 48.3327 20.7097C48.2647 21.0325 48.2339 21.3894 48.0169 21.6569C47.7802 21.8307 47.4644 21.7768 47.1902 21.7967C43.6367 21.8166 40.0806 21.8137 36.5271 21.7399C36.3785 20.8894 36.7686 20.0821 36.9157 19.2596C37.0952 18.3139 37.3307 17.3623 37.2858 16.3937C37.2873 15.8262 36.9172 15.3495 36.6029 14.9067C35.8691 14.2256 34.8083 14.0503 33.8378 14.1717C32.7584 14.3179 31.5895 14.3795 30.6852 15.0514C29.484 15.6325 28.784 16.8273 28.1943 17.9604C27.8335 18.6091 27.8536 19.3703 27.7172 20.0791C27.5285 21.2156 27.9944 22.3424 28.7238 23.2018C29.1355 23.9169 29.8804 24.312 30.4593 24.8718C31.0571 25.181 31.5182 25.6898 32.1253 25.9835C33.7527 26.9152 35.2619 28.0362 36.9343 28.894C38.1032 29.6043 39.2457 30.3655 40.2864 31.2559C42.6335 32.9716 44.3939 35.7286 44.2947 38.6963C44.4526 40.449 44.168 42.205 43.7638 43.9085C43.3023 45.4509 42.9619 47.0482 42.1999 48.4813C41.7682 49.4163 41.4397 50.4096 40.8081 51.2383C40.1207 52.505 39.1655 53.5924 38.2581 54.7038C37.5722 55.5266 36.6322 56.0646 35.8349 56.7642C34.3331 57.9006 32.579 58.6478 30.8464 59.3629C30.4764 59.5441 30.6295 60.0348 30.58 60.3636C30.4935 61.32 30.6558 62.2933 30.4329 63.2346C29.6092 63.5648 28.6944 63.5803 27.8302 63.7648C26.8876 63.874 25.9583 64.1153 25.006 64.1353C24.8437 63.4482 24.5973 62.7715 24.5959 62.0583C24.5728 61.5952 24.5386 60.9956 24.0879 60.7373C23.2828 60.6281 22.4639 60.7082 21.6543 60.6591C20.8228 60.6683 20.0054 60.3839 19.1753 60.5052C18.4058 61.117 17.7463 61.8675 17.1006 62.607C16.7413 62.8992 16.2445 63.273 15.7738 62.9793C14.3741 62.2642 13.086 61.3602 11.7885 60.4805C12.2281 59.3658 13.0239 58.4157 13.4482 57.304C13.1369 56.669 12.5796 56.2107 12.0995 55.7078C11.3921 54.827 10.604 54.0119 9.82971 53.1924C8.75073 52.9755 7.65911 53.4016 6.5753 53.2201C6.21453 52.0176 5.86936 50.8107 5.58141 49.5916C5.4235 49.0348 5.00996 48.3031 5.4391 47.7924C6.28586 47.3175 7.38677 47.1607 7.98273 46.3195C8.21644 44.9373 8.15625 43.5241 8.42414 42.1467C9.26458 42.0297 10.1177 42.0943 10.9648 42.088C14.0119 42.0851 17.059 42.0803 20.106 42.102C20.3319 42.1035 20.5578 42.1264 20.7793 42.1802C20.4683 43.4794 19.9663 44.7421 19.8534 46.0826C19.8103 47.4142 20.106 48.8687 21.1416 49.8023C22.0845 50.7446 23.4377 51.1335 24.7493 51.1568C25.8547 51.1859 26.9184 50.8184 27.9495 50.4616C31.0214 49.1931 32.8112 45.566 32.0324 42.3695C31.8418 41.5131 31.1872 40.8748 30.6049 40.2597C29.5271 39.3343 28.2315 38.7222 27.0563 37.9366C24.4595 36.4943 21.7037 35.2766 19.386 33.39C18.7543 32.7905 17.9942 32.3259 17.4599 31.6278C16.9735 30.9758 16.3824 30.3917 16.0309 29.6523C15.2536 28.1192 14.687 26.4355 14.6944 24.7043C14.5629 21.8997 15.125 19.0552 16.3931 16.5428C16.6503 16.0292 16.9103 15.517 17.1719 15.0067C17.7185 13.9489 18.5329 13.0663 19.1894 12.0793C19.4588 11.69 19.8456 11.4025 20.1276 11.0229C20.6262 10.3369 21.36 9.88494 22.0009 9.34696C22.8076 8.68243 23.6978 8.13376 24.6037 7.61866C26.2834 6.5608 28.2252 6.00881 30.1542 5.60736Z" fill="#055489"/>
<path d="M60.5644 9.36716C63.8248 6.77323 67.9761 5.39694 72.1271 5.19548C73.5746 5.18035 75.03 5.13091 76.4698 5.32019C77.7256 5.46926 78.9565 5.76924 80.1749 6.10575C81.3471 6.53008 82.4833 7.0544 83.5857 7.63591C84.538 8.42294 85.549 9.17787 86.2627 10.2036C87.0463 11.2445 87.7537 12.3898 88.0094 13.6831C88.6551 15.5066 88.5682 17.4747 88.2943 19.3599C87.9395 21.0682 87.523 22.7626 87.2243 24.4817C87.1143 24.7566 86.7628 24.637 86.5369 24.6798C83.7484 24.6754 80.9599 24.6385 78.173 24.7031C77.159 24.6953 76.1417 24.7706 75.1322 24.6599C75.4714 23.0578 75.8474 21.4649 76.2502 19.8779C76.4605 18.7695 76.696 17.5578 76.2097 16.4863C75.7189 15.6435 74.7762 15.1638 73.8318 15.0129C72.0866 14.8284 70.2983 15.1624 68.7363 15.9527C67.3382 16.729 66.16 17.9791 65.6692 19.5119C64.8919 21.3727 64.5077 23.353 64.0388 25.3012C63.5603 26.697 63.4518 28.2025 62.8372 29.5555C62.0027 29.2002 61.0783 29.374 60.2159 29.505C58.8691 29.7094 57.6396 30.3964 56.6067 31.2561C55.5771 32.3524 54.7289 33.7545 54.7367 35.2983C54.6653 36.6392 55.0941 38.0184 55.9535 39.0623C56.0728 39.2176 56.1965 39.4036 56.1408 39.6128C55.7477 42.5572 54.7553 45.3988 54.5104 48.3665C54.5119 49.9501 54.967 51.5921 56.0509 52.7898C56.5372 53.3495 57.161 53.7617 57.7388 54.2185C59.4914 55.1609 61.5056 55.4313 63.4625 55.6099C66.2295 55.7051 69.1528 55.1963 71.4178 53.5281C72.0773 52.9481 72.8501 52.4732 73.3469 51.7352C74.2356 50.425 75.0564 49.0166 75.3443 47.4422C75.7902 45.6264 75.8675 43.7229 76.5303 41.9625C76.806 41.6455 77.3091 41.6455 77.7037 41.6378C78.6143 41.6687 79.531 41.5979 80.4398 41.6901C81.2078 41.7625 81.7696 42.3591 82.4896 42.582C83.1339 42.8679 83.8893 42.8617 84.5179 43.1354C84.5859 43.9889 84.1943 44.7807 84.055 45.6065C83.53 48.5952 82.2158 51.4124 80.4071 53.8477C79.8081 54.7612 78.958 55.4623 78.2071 56.2464C77.337 57.1489 76.3133 57.8917 75.2236 58.5112C74.2776 59.2307 73.1645 59.6613 72.0806 60.1288C68.445 61.4309 64.4925 61.8523 60.6603 61.3372C58.2805 61.2095 56.0044 60.3934 53.8572 59.4152C52.8537 58.8156 51.8349 58.202 51.036 57.3382C50.1335 56.5003 49.4755 55.4468 48.9041 54.372C48.3512 53.3219 48.2338 52.1242 48.0402 50.974C47.9611 49.5918 47.944 48.1941 48.1654 46.8227C48.4289 44.3453 48.9227 41.8994 49.3826 39.453C49.8099 36.982 50.4323 34.5482 50.8781 32.0801C51.434 29.8924 51.7684 27.6567 52.3164 25.4654C52.792 23.7219 53.1015 21.9324 53.6915 20.2192C54.2117 18.4835 54.8184 16.7567 55.712 15.1731C56.5171 13.6739 57.6396 12.3762 58.7234 11.0722C59.2313 10.3974 59.9822 9.9697 60.5644 9.36716Z" fill="#045487"/>
<path d="M139.287 5.64999C139.711 5.95588 139.913 6.53407 140.001 7.03219C139.852 9.15235 139.34 11.2238 139.007 13.3163C138.315 16.8559 137.601 20.3922 136.913 23.9333C136.796 24.379 136.708 24.9052 136.299 25.1878C135.549 25.6908 134.609 25.6738 133.744 25.6767C130.333 25.6937 126.921 25.683 123.51 25.6985L123.626 25.5402C124.422 25.4937 125.224 25.5354 126.015 25.3985C128.59 25.334 131.172 25.4417 133.747 25.3524C134.323 25.1849 134.918 25.4539 135.486 25.2572C135.92 25.1757 136.285 24.8698 136.486 24.4868C136.821 23.3012 136.913 22.0574 137.339 20.8951C137.537 19.7033 137.674 18.4964 137.954 17.3171C138.171 16.1976 138.615 15.1213 138.665 13.9742C138.736 13.0255 139.008 12.1094 139.168 11.1744C139.33 9.88441 139.702 8.62065 139.731 7.3152C139.758 6.72483 139.43 6.20642 139.287 5.64999Z" fill="#092341"/>
<path d="M91.8526 6.2846C93.0572 6.06321 94.2833 6.10786 95.5016 6.10159C106.292 6.10786 117.083 6.10638 127.873 6.09384C128.9 6.13553 129.928 6.02927 130.953 6.12004C130.998 6.94102 130.69 7.72694 130.591 8.53575C130.145 10.27 129.823 12.0289 129.429 13.7756C129.283 14.4368 129.236 15.1335 128.911 15.7438C126.861 15.8637 124.81 15.739 122.759 15.7637C120.646 15.7622 118.531 15.7253 116.421 15.8146C115.908 15.8914 115.948 16.5171 115.856 16.9031C115.192 20.1165 114.521 23.3256 113.837 26.5346C113.733 27.5954 113.388 28.6086 113.216 29.6587C112.533 32.9755 111.853 36.2919 111.161 39.6086C110.954 40.9233 110.624 42.2162 110.265 43.4955C109.923 43.7002 109.502 43.611 109.125 43.6294C108.693 43.6017 108.238 43.6648 107.829 43.5095C107.693 43.2449 107.721 42.9313 107.707 42.6453C108.192 40.3588 108.503 38.0401 109.018 35.7598C109.094 34.7392 109.53 33.7795 109.535 32.7511L109.42 32.757C109.371 32.7585 109.275 32.7633 109.227 32.7648C108.75 32.7017 108.377 33.0353 107.994 33.2522C107.103 33.7717 106.368 34.4994 105.546 35.1111C103.175 37.0025 100.766 38.8445 98.3678 40.7019C98.2886 40.6355 98.1307 40.5064 98.0534 40.4418C98.0813 39.7101 98.3644 39.0149 98.3815 38.2799C99.4159 33.2843 100.483 28.2965 101.516 23.3008C101.961 20.787 102.674 18.3255 103.07 15.8021C102.407 15.7146 101.741 15.7976 101.079 15.7821C98.1913 15.8408 95.3036 15.7869 92.4159 15.8039C91.9098 15.7947 91.399 15.8283 90.9004 15.7331C90.391 14.9564 90.1494 13.9372 90.3768 13.0207C90.8413 10.7695 91.3384 8.52468 91.8526 6.2846Z" fill="#045487"/>
<path d="M70.791 23.9093C71.6504 23.2204 72.4942 22.4485 73.6059 22.195L73.6197 22.275C73.3258 23.2237 73.1664 24.2063 72.92 25.1656C72.813 25.6055 72.6815 26.0634 72.7807 26.5172C73.0021 26.9784 73.4079 27.3168 73.7716 27.6673C74.7161 28.5281 75.665 29.3938 76.6653 30.1904C77.3619 30.321 78.0775 30.2764 78.7835 30.3225C83.2733 30.4734 87.7664 30.3133 92.2566 30.2258C92.4565 29.9952 92.6761 29.7583 92.7396 29.4491C93.0309 28.333 93.2412 27.1983 93.4998 26.0759C93.7725 24.7952 94.1177 23.5281 94.3113 22.2304C96.0067 22.181 97.7036 22.2241 99.4004 22.2105C98.4403 26.5157 97.5642 30.8376 96.674 35.1583C95.2138 42.059 93.8064 48.9718 92.3789 55.8802C92.3124 55.9326 92.1775 56.0341 92.111 56.0846C94.0728 46.3274 96.1259 36.5867 98.1464 26.8415C98.4125 25.3686 98.8695 23.9292 99.0426 22.4411C97.5363 22.4319 96.0267 22.378 94.522 22.464C94.2322 24.1292 93.7785 25.7575 93.4426 27.412C93.226 28.2654 93.1483 29.1694 92.7708 29.9734C92.4981 30.4963 91.8323 30.455 91.3277 30.4919C87.7141 30.6025 84.0989 30.621 80.4833 30.5992C79.3174 30.5871 78.1485 30.5823 76.9889 30.4657C76.4717 30.4347 76.0923 30.0583 75.7301 29.7369C74.744 28.8112 73.6293 28.0116 72.7807 26.9508C72.4805 26.5711 72.5006 26.0527 72.5827 25.6036C72.7759 24.6273 73.0843 23.6742 73.2035 22.6839C72.1769 22.8023 71.5713 23.7218 70.7461 24.2229C70.7569 24.1447 70.7803 23.9878 70.791 23.9093Z" fill="#E2D86B"/>
<path d="M69.534 25.4904C69.8464 25.0893 70.1113 24.6034 70.5929 24.3805C70.2678 25.1554 69.4582 25.6565 69.3032 26.5221C68.9625 28.4256 68.7396 30.3525 68.3294 32.245C68.1622 33.1076 67.9329 33.9733 67.9824 34.8588C67.7936 35.2403 67.6495 35.6433 67.5937 36.0676C67.2779 38.0309 66.8833 39.9806 66.4434 41.9211C66.2142 43.1081 65.8103 44.2611 65.649 45.4622C65.584 45.9326 65.6416 46.6385 66.242 46.7152C67.3307 46.8827 68.3075 45.9972 68.5787 44.9995C69.026 43.414 69.2256 41.7735 69.5834 40.1681C69.8435 39.2582 70.1177 38.3232 70.6921 37.5527C71.5139 36.3783 72.652 35.3573 74.0316 34.8883C75.306 34.4208 76.6807 34.6422 78.0046 34.5883C79.0185 34.5485 80.0485 34.6145 81.0531 34.4456C81.7933 34.1334 82.4635 33.615 83.2843 33.515C84.9548 33.3154 86.7865 33.8718 87.8811 35.1835C89.2714 36.9347 90.2995 38.9829 90.7781 41.1661C90.8539 42.3425 90.8568 43.5387 90.648 44.7024C90.2297 47.444 89.6571 50.1656 88.8349 52.8178C87.7262 56.588 85.1747 59.9199 81.7855 61.9541C78.1562 64.179 73.8737 65.1616 69.6484 65.3553C66.1785 65.4291 62.6655 65.3505 59.284 64.4956C56.0623 63.7178 52.9004 62.4415 50.307 60.352C48.2278 58.7251 46.6546 56.4511 45.9442 53.9125C45.4516 52.0828 45.3635 50.1563 45.5801 48.2804C45.6407 47.9222 45.5151 47.4517 45.89 47.2351C45.6593 49.5553 45.5649 51.9463 46.2846 54.1985C47.1733 57.1031 49.27 59.5295 51.8136 61.1578C54.3435 62.826 57.2605 63.8193 60.2114 64.4543C63.5171 65.1524 66.9171 65.2432 70.2815 65.0923C74.5146 64.7635 78.8283 63.7392 82.3599 61.3084C84.4454 59.8601 86.2322 57.9551 87.3918 55.6962C88.1891 54.2693 88.6721 52.7027 89.0808 51.1312C89.6571 49.0125 90.0844 46.8551 90.408 44.6858C90.6075 43.5154 90.5938 42.3192 90.5332 41.1399C90.0316 39.0043 89.0314 36.9823 87.6381 35.2787C86.5249 33.9766 84.6531 33.5227 83.0023 33.8102C82.1028 33.9873 81.4355 34.7976 80.491 34.7869C79.3068 34.8035 78.1205 34.8374 76.9364 34.8359C76.0554 34.8452 75.1525 34.7684 74.3043 35.0525C72.6553 35.5554 71.3267 36.8424 70.4985 38.3139C69.4426 40.5005 69.4596 42.9974 68.7518 45.2884C68.4052 46.257 67.4436 47.0303 66.3832 46.9968C65.937 47.0226 65.5439 46.6721 65.428 46.2618C65.2418 45.7681 65.4202 45.2485 65.5253 44.7593C66.1246 42.393 66.6414 40.0068 67.0828 37.6066C67.6123 34.5038 68.3372 31.4332 68.7719 28.315C68.9469 27.36 68.9161 26.3007 69.534 25.4904Z" fill="#E1D669"/>
<path d="M122.672 28.3771C122.853 27.5852 122.8 26.6905 123.299 26.0075C122.865 28.7645 122.271 31.4968 121.727 34.2354C120.995 37.8226 120.239 41.4035 119.482 44.9859C119.341 45.6962 119.092 46.3973 119.128 47.1308C119.089 46.9235 119.044 46.7142 119.019 46.5084C119.233 44.8524 119.513 43.1872 120.029 41.5939C120.301 40.4254 120.436 39.2291 120.73 38.0639C121.448 34.8486 122.024 31.606 122.672 28.3771ZM118.417 48.9853C118.592 48.3518 118.58 47.6474 118.961 47.0877C118.795 48.5086 118.433 49.8971 118.163 51.3007C117.736 53.5596 117.198 55.7937 116.752 58.0493C116.655 58.3969 116.621 58.7552 116.641 59.1164C116.599 58.912 116.568 58.7072 116.545 58.5028C116.61 57.6202 116.804 56.7531 116.975 55.8874C117.11 55.1709 117.423 54.5005 117.507 53.7732C117.711 52.1589 118.115 50.5812 118.417 48.9853ZM13.0078 67.8313C13.6086 67.9158 14.0002 68.4032 14.4847 68.7124C15.3441 69.2722 16.2202 69.8164 17.1539 70.2437C17.9268 70.5883 18.6156 71.0894 19.4022 71.4093C19.8822 71.6016 20.3344 71.9259 20.8605 71.9657C21.1968 71.8108 21.5341 71.6584 21.8641 71.4909C22.1271 71.2447 22.2728 70.8374 22.7016 70.8451C22.4786 71.3001 22.0606 71.62 21.7121 71.9783C21.2432 72.4395 20.4875 72.3104 19.9625 72.0229C17.6388 70.7418 15.1305 69.7164 13.1007 67.976L13.0078 67.8313Z" fill="#05203B"/>
<path d="M49.1035 28.159C49.5014 27.7764 49.4383 27.1414 49.6333 26.6525C49.7507 26.7584 49.8685 26.8647 49.9878 26.972C48.9753 31.7112 47.9937 36.4559 47.0057 41.1995C46.7037 41.0597 46.885 40.649 46.8337 40.3892C46.7672 40.7936 46.6914 41.1995 46.577 41.5947C46.5134 41.6054 46.3878 41.6253 46.3262 41.636C47.1343 37.9119 47.8915 34.1775 48.6498 30.4427C49.0076 30.0276 49.0032 29.4416 48.9519 28.9265C48.9954 28.6697 49.0478 28.4129 49.1035 28.159Z" fill="#E2D54F"/>
<path d="M48.9525 28.9269C49.0037 29.442 49.0082 30.0279 48.6504 30.443C48.7251 29.9324 48.8272 29.428 48.9525 28.9269Z" fill="#CAC66B"/>
<path d="M56.7899 35.6141C56.6443 33.0109 59.422 30.8933 61.921 31.3409C63.3051 31.6948 64.2867 33.0216 64.4754 34.3916C64.6705 35.8676 63.9772 37.4206 62.7522 38.2785C62.1904 38.7028 61.5138 38.9334 60.8588 39.1718C60.4965 41.1739 60.0923 43.1678 59.6943 45.1636C59.5026 46.1233 59.2626 47.0764 59.1619 48.0527C59.1649 48.9184 59.445 49.8748 60.1959 50.3917C61.0709 50.9529 62.1298 51.1448 63.1564 51.1559C64.9975 51.2356 66.9574 51.1787 68.6019 50.2515C69.9071 49.5165 70.7104 48.1251 70.9783 46.6875C71.3484 44.6286 71.7586 42.5774 72.1379 40.5219C72.4664 38.7998 74.0005 37.1701 75.8556 37.2376C77.7011 37.2236 79.5496 37.2376 81.3969 37.1944C81.8629 37.1992 82.1356 36.7764 82.493 36.5472C83.131 36.0273 84.0242 35.8923 84.8093 36.1089C85.5538 36.3627 86.1732 37.004 86.3497 37.7726C86.4147 38.343 86.4318 38.9611 86.1268 39.4732C85.565 40.6019 84.0041 41.017 82.9095 40.4359C82.4142 40.1913 82.0423 39.7699 81.5965 39.4548C80.0404 39.4518 78.4844 39.4348 76.9283 39.4518C75.9779 39.4348 74.9948 39.9116 74.5147 40.7433C74.3211 41.1108 74.2034 41.5137 74.109 41.9162C73.7267 43.6464 73.4666 45.399 73.1679 47.1443C72.8257 49.0479 71.7184 50.819 70.0725 51.8754C68.2489 53.1483 65.9479 53.445 63.7725 53.4391C62.099 53.3435 60.3416 53.1993 58.8706 52.3211C57.3394 51.4787 56.5298 49.6013 56.8609 47.9099C57.4632 44.9179 58.1323 41.938 58.7747 38.9552C57.6753 38.1969 56.6922 37.0225 56.7899 35.6141ZM60.2442 33.8271C61.0568 33.4304 62.0121 34.0116 62.1718 34.8529C62.2446 35.8967 61.221 36.7424 60.2238 36.7472C59.555 36.724 59.0627 36.0937 59.0564 35.4617C59.1218 34.7543 59.6014 34.1223 60.2442 33.8271ZM60.2609 33.3489C61.3247 32.9275 62.6285 33.8673 62.5928 34.9927C62.5913 36.3059 61.1961 37.442 59.9035 37.1391C58.9761 36.9439 58.4047 35.8724 58.6819 34.9898C58.8955 34.2363 59.4807 33.5518 60.2609 33.3489ZM60.4345 33.5319C59.5086 33.7673 58.8242 34.6912 58.8275 35.6292C58.9341 36.0937 59.1586 36.5948 59.62 36.8055C60.6853 37.3697 62.0091 36.4778 62.3249 35.4277C62.6979 34.3713 61.4952 33.1692 60.4345 33.5319Z" fill="#E5DB6B"/>
<path d="M60.0934 31.691C61.146 31.3438 62.4174 31.4958 63.1943 32.3371C64.5215 33.6116 64.5817 35.8612 63.4344 37.2663C62.9406 37.9397 62.2205 38.4149 61.4373 38.6932C61.1181 38.847 60.6552 38.9393 60.5872 39.3499C60.135 41.8516 59.5977 44.3363 59.1103 46.8317C58.8253 47.8804 58.8546 49.081 59.4848 50.0039C59.9693 50.7248 60.8413 51.0263 61.6509 51.2259C62.7563 51.4429 63.8943 51.4182 65.0168 51.389C66.5635 51.3444 68.169 50.9632 69.3892 49.9743C70.476 49.0858 71.0489 47.7265 71.2611 46.372C71.4948 44.916 71.8325 43.4814 72.0725 42.0269C72.3047 41.0672 72.3419 40.0156 72.9349 39.1839C73.5509 38.2795 74.5188 37.4479 75.6784 37.4741C77.541 37.4401 79.4051 37.477 81.2676 37.4139C82.2928 37.4202 82.8267 36.1915 83.8796 36.2686C85.2484 36.0778 86.5024 37.4984 86.0985 38.8223C85.8522 40.1126 84.2527 40.8491 83.0901 40.2491C82.4351 39.9835 82.0405 39.1854 81.2632 39.2422C79.7707 39.219 78.2796 39.2131 76.7886 39.2378C75.59 39.2422 74.3746 40.0001 74.0588 41.1856C73.4736 43.3028 73.283 45.5016 72.7907 47.6372C72.3389 49.5057 71.0396 51.1399 69.329 52.0332C67.8565 52.9284 66.0883 53.1372 64.3944 53.1634C62.572 53.1867 60.6507 53.0465 59.0374 52.1255C57.9414 51.5196 57.1808 50.3743 57.0508 49.1382C56.9549 48.0217 57.3127 46.9439 57.5137 45.8599C57.87 44.0733 58.2988 42.3003 58.6767 40.5185C58.7573 39.9481 59.0111 39.3761 58.8795 38.7965C58.6101 38.4459 58.2059 38.229 57.9116 37.9013C57.2878 37.1958 56.9333 36.2501 57.0292 35.3059C57.0664 33.5702 58.4768 32.1571 60.0934 31.691ZM60.2405 33.8252C61.0531 33.4286 62.0083 34.0097 62.1681 34.851C62.2409 35.8948 61.2173 36.7405 60.2201 36.7453C59.5513 36.7221 59.059 36.0919 59.0527 35.4598C59.1181 34.7525 59.5977 34.1204 60.2405 33.8252Z" fill="#EDC20D"/>
<path d="M107.994 33.2512C108.378 33.0343 108.751 32.7007 109.228 32.7638C108.644 33.1081 108.042 33.428 107.498 33.8324C104.407 36.3016 101.271 38.7203 98.1576 41.1622C97.8109 41.4064 97.7425 41.84 97.6638 42.2245C96.6773 46.9404 95.5783 51.6301 94.5487 56.3365C98.8854 56.2597 103.224 56.2782 107.56 56.2379C107.656 55.3432 107.896 54.4746 108.062 53.5935C108.641 50.9335 109.154 48.2595 109.754 45.6043L109.804 45.3981C109.946 45.5918 109.974 45.8364 109.902 46.0655C109.672 47.0939 109.439 48.1226 109.31 49.1698C108.959 50.1738 108.85 51.2364 108.598 52.2666C108.435 53.0706 108.416 53.9023 108.135 54.682C107.929 55.2126 107.929 55.8029 107.681 56.3195C107.483 56.4889 107.21 56.5302 106.96 56.535C102.878 56.5103 98.797 56.5549 94.7174 56.5424C94.3644 56.5826 94.338 56.149 94.4031 55.9107C94.6323 54.7805 94.872 53.6518 95.154 52.5341C95.3275 51.553 95.7254 50.6121 95.7377 49.6066C95.702 49.0546 96.0721 48.5993 96.1649 48.0721C96.6231 46.0194 97.0366 43.9576 97.4951 41.9049C97.588 41.3898 97.9391 40.9821 98.3682 40.7009C100.767 38.8435 103.176 37.0016 105.546 35.1102C106.368 34.4984 107.104 33.7708 107.994 33.2512Z" fill="#0A2729"/>
<path d="M109.226 32.7638C109.274 32.7623 109.37 32.7575 109.418 32.756C108.458 36.903 107.867 41.1237 106.969 45.2829L106.931 45.4456C107.802 45.4674 108.673 45.415 109.542 45.4688C109.595 45.5028 109.7 45.5703 109.753 45.6043C109.152 48.2594 108.639 50.9334 108.06 53.5934C107.894 54.4745 107.654 55.3431 107.559 56.2379C103.222 56.2781 98.8836 56.2596 94.5469 56.3364C95.5764 51.6301 96.6755 46.9403 97.6619 42.2244C97.7407 41.8399 97.8091 41.4064 98.1557 41.1621C101.269 38.7202 104.405 36.3015 107.497 33.8323C108.04 33.4279 108.642 33.108 109.226 32.7638ZM107.117 47.6414C107.306 47.4875 107.661 47.4506 107.702 47.7628C107.678 48.2871 107.504 48.7885 107.388 49.2959C107.046 50.7242 106.772 52.168 106.487 53.6104C106.433 53.9148 106.27 54.31 105.883 54.2546C102.949 54.2347 100.017 54.2915 97.0842 54.3066C97.0812 54.1129 96.9976 53.8532 97.2068 53.7303C97.64 53.3779 98.1513 53.1414 98.628 52.854C101.492 51.1718 104.289 49.3804 107.117 47.6414ZM99.9611 52.337C99.3651 52.7215 98.7023 53.0089 98.1513 53.455L98.4158 53.4779C101.375 51.8238 104.185 49.9091 107.122 48.2148C106.918 49.8815 106.366 51.4884 106.142 53.1536C106.086 53.4074 106.057 53.824 105.71 53.824C103.109 53.8502 100.506 53.824 97.9049 53.8561C97.922 53.7716 97.9592 53.6011 97.9778 53.5163C97.7207 53.6764 97.4606 53.8332 97.1711 53.9255C97.309 54.0439 97.4635 54.1731 97.6727 54.0793C100.498 54.024 103.324 54.0332 106.15 54.0406C106.586 51.902 107.041 49.7634 107.534 47.6399C105.033 49.242 102.49 50.7796 99.9611 52.337ZM99.4454 43.6099C100.559 44.0896 101.621 44.6785 102.691 45.2474C103.328 45.5888 104.022 45.8422 104.607 46.2728L104.639 46.3791C104.106 46.8433 103.466 47.1602 102.88 47.5477C101.638 48.3687 100.359 49.1313 99.1329 49.9737C98.6544 50.2567 98.2315 50.6441 97.6976 50.8194C98.2735 48.4148 98.8632 46.0131 99.4454 43.6099ZM99.3759 43.1454C100.028 43.2978 100.594 43.6697 101.192 43.9557C102.445 44.6261 103.725 45.2504 104.967 45.9408C105.176 46.0622 105.554 46.402 105.199 46.5898C102.938 48.0428 100.667 49.4819 98.4192 50.9548C98.1294 51.1626 97.8277 51.3548 97.504 51.5053C97.4186 51.4607 97.2484 51.3699 97.1633 51.3238C97.2269 50.429 97.5783 49.5911 97.7363 48.7129C98.103 47.2108 98.4515 45.7057 98.8401 44.208C98.9468 43.8837 98.9096 43.4299 99.2797 43.2653C98.6885 45.9869 97.9436 48.6745 97.3446 51.3946C99.941 49.6863 102.559 48.0118 105.184 46.3466C103.298 45.2781 101.353 44.3125 99.4175 43.3332L99.3759 43.1454ZM103.168 40.2839C104.225 39.4353 105.255 38.5357 106.413 37.8254C106.39 38.6911 106.114 39.5275 105.985 40.3825C105.738 41.382 105.707 42.4273 105.355 43.4007C104.324 42.8749 103.316 42.3045 102.273 41.8063C102.074 41.7141 101.895 41.5864 101.729 41.4495C102.167 41.0127 102.68 40.6621 103.168 40.2839ZM102.595 40.1703C103.921 39.0988 105.256 38.0332 106.626 37.0166C106.637 37.0753 106.661 37.1904 106.671 37.2487C104.861 38.6556 103.103 40.1271 101.252 41.4816C102.643 42.2904 104.115 42.9472 105.518 43.7357C106.038 41.5724 106.318 39.3571 106.84 37.1934C107.003 37.4409 106.939 37.738 106.898 38.0132C106.549 39.7781 106.19 41.5403 105.874 43.3114C105.837 43.6221 105.517 43.9804 105.18 43.8188C103.937 43.1623 102.688 42.5137 101.44 41.8676C101.223 41.7739 101.147 41.5204 101.195 41.3067C101.598 40.8577 102.129 40.55 102.595 40.1703Z" fill="#E7DC6E"/>
<path d="M60.2567 33.346C61.3205 32.9246 62.6242 33.8644 62.5886 34.9898C62.5871 36.303 61.1919 37.4391 59.8993 37.1361C58.9719 36.941 58.4005 35.8694 58.6776 34.9868C58.8913 34.2334 59.4765 33.5489 60.2567 33.346ZM60.4302 33.529C59.5043 33.7644 58.8199 34.6883 58.8233 35.6263C58.9299 36.0908 59.1543 36.5919 59.6158 36.8026C60.681 37.3668 62.0049 36.4749 62.3207 35.4248C62.6937 34.3684 61.491 33.1663 60.4302 33.529Z" fill="#E5DB6C"/>
<path d="M106.044 35.2875C106.986 34.5772 107.829 33.6625 108.981 33.2873C108.94 33.9684 108.78 34.6311 108.632 35.2952C107.99 38.5781 107.455 41.8837 106.76 45.1573C106.783 45.3573 106.846 45.7045 107.117 45.6909C107.887 45.7447 108.661 45.64 109.43 45.737C108.861 49.0412 108.052 52.3056 107.424 55.6006C107.364 55.7482 107.36 56.0574 107.116 56.0112C103.869 56.074 100.621 56.005 97.3741 56.054C96.5425 56.0555 95.7125 56.1171 94.8828 56.0574C95.0036 54.8947 95.3874 53.7771 95.5966 52.6284C95.9417 51.4274 96.0967 50.1869 96.4125 48.9814C96.9791 46.638 97.4186 44.2655 97.9793 41.9206C98.0458 41.4395 98.5132 41.1871 98.8539 40.9026C101.262 39.0441 103.64 37.1497 106.044 35.2875ZM98.4174 53.4786C101.376 51.8244 104.186 49.9098 107.124 48.2154C106.919 49.8821 106.368 51.489 106.143 53.1542C106.088 53.4081 106.058 53.8247 105.711 53.8247C103.11 53.8509 100.508 53.8247 97.9065 53.8568C97.9236 53.7723 97.9607 53.6018 97.9793 53.5169L97.9945 53.4431C98.035 53.4465 98.1138 53.4527 98.1528 53.4557L98.4174 53.4786ZM102.596 40.1709C102.13 40.5506 101.599 40.8584 101.197 41.3074C101.149 41.521 101.224 41.7745 101.441 41.8682C102.689 42.5143 103.939 43.163 105.182 43.8194C105.518 43.981 105.838 43.6227 105.875 43.3121C106.191 41.541 106.551 39.7787 106.899 38.0139C106.941 37.7386 107.004 37.4416 106.842 37.194L106.673 37.2494C106.662 37.1911 106.639 37.0759 106.628 37.0173C105.258 38.0338 103.923 39.0994 102.596 40.1709ZM99.3775 43.146L99.4191 43.3338L99.2812 43.2659C98.9112 43.4305 98.9483 43.8844 98.8417 44.2087C98.453 45.7064 98.1045 47.2114 97.7378 48.7136C97.5799 49.5917 97.2284 50.4297 97.1649 51.3245C97.25 51.3706 97.4201 51.4613 97.5056 51.506C97.8292 51.3554 98.1309 51.1632 98.4207 50.9555C100.669 49.4825 102.94 48.0435 105.2 46.5904C105.555 46.4026 105.177 46.0628 104.968 45.9414C103.726 45.2511 102.446 44.6267 101.194 43.9563C100.596 43.6703 100.029 43.2984 99.3775 43.146Z" fill="#EDC20E"/>
<path d="M60.2425 33.8249C61.0551 33.4282 62.0104 34.0094 62.1701 34.8506C62.243 35.8945 61.2193 36.7402 60.2221 36.745C59.5533 36.7217 59.061 36.0915 59.0547 35.4595C59.1201 34.7521 59.5998 34.1201 60.2425 33.8249Z" fill="#07416E"/>
<path d="M15.9404 36.4987C16.1618 36.6618 16.3784 36.8323 16.5906 37.009C16.5921 37.0828 16.5984 37.2289 16.6014 37.3012C13.6442 37.3983 10.6807 37.212 7.72988 37.4566C7.0113 37.5012 6.28194 37.4551 5.57303 37.6012C5.11453 37.6964 4.7415 38.03 4.50148 38.4178C3.94415 39.2233 4.05116 40.2457 3.79404 41.153C3.63131 41.8094 3.76469 42.6644 3.25195 43.164C3.53545 42.0895 3.6053 40.9778 3.89139 39.9059C3.91777 38.782 4.62706 37.4843 5.87027 37.3905C9.05965 37.1382 12.2646 37.2013 15.4618 37.212C15.7513 37.2027 16.0656 37.2367 16.3134 37.057C16.1633 36.8891 15.9835 36.7323 15.9404 36.4987Z" fill="#604F0E"/>
<path d="M16.5898 37.0119C16.7229 37.0415 17.0435 37.0706 16.9521 37.2813C16.864 37.2872 16.689 37.2997 16.6006 37.3042C16.5976 37.2318 16.5913 37.0857 16.5898 37.0119Z" fill="#D1C554"/>
<path d="M102.595 40.1719C103.922 39.1004 105.256 38.0348 106.627 37.0183C106.638 37.0769 106.661 37.1921 106.672 37.2504C104.862 38.6573 103.103 40.1288 101.253 41.4833C102.643 42.2921 104.115 42.9489 105.518 43.7374C106.039 41.5741 106.319 39.3587 106.84 37.195C107.003 37.4426 106.94 37.7396 106.898 38.0149C106.549 39.7797 106.19 41.542 105.874 43.3131C105.837 43.6238 105.517 43.982 105.181 43.8204C103.937 43.164 102.688 42.5153 101.44 41.8693C101.223 41.7755 101.148 41.522 101.195 41.3084C101.598 40.8594 102.129 40.5516 102.595 40.1719Z" fill="#E6D96B"/>
<path d="M103.169 40.2834C104.226 39.4348 105.256 38.5352 106.414 37.8249C106.391 38.6905 106.115 39.527 105.987 40.3819C105.739 41.3815 105.708 42.4268 105.356 43.4002C104.325 42.8744 103.317 42.304 102.274 41.8058C102.076 41.7136 101.896 41.5859 101.73 41.449C102.169 41.0122 102.681 40.6616 103.169 40.2834Z" fill="#07436E"/>
<path d="M46.7654 41.3434C46.823 41.3142 46.939 41.2574 46.9962 41.2282C46.5923 43.2241 46.1817 45.2199 45.8878 47.2341C45.8537 47.1356 45.7857 46.9386 45.75 46.8404C45.9603 44.9892 46.3367 43.1547 46.7654 41.3434Z" fill="#CECA6D"/>
<path d="M99.3766 43.1461C100.028 43.2985 100.595 43.6705 101.193 43.9564C102.445 44.6269 103.726 45.2512 104.967 45.9415C105.177 46.0629 105.554 46.4028 105.2 46.5906C102.939 48.0436 100.668 49.4826 98.4199 50.9556C98.1301 51.1633 97.8284 51.3556 97.5048 51.5061C97.4193 51.4615 97.2491 51.3707 97.1641 51.3246C97.2276 50.4298 97.5791 49.5919 97.737 48.7137C98.1037 47.2116 98.4522 45.7065 98.8409 44.2088C98.9475 43.8845 98.9103 43.4306 99.2804 43.2661C98.6893 45.9877 97.9443 48.6753 97.3454 51.3954C99.9418 49.687 102.56 48.0126 105.184 46.3474C103.298 45.2789 101.354 44.3132 99.4183 43.334L99.3766 43.1461Z" fill="#DDD269"/>
<path d="M99.447 43.61C100.56 44.0897 101.622 44.6786 102.692 45.2475C103.33 45.5889 104.024 45.8423 104.609 46.2729L104.64 46.3792C104.107 46.8434 103.468 47.1603 102.881 47.5478C101.64 48.3687 100.361 49.1314 99.1345 49.9738C98.656 50.2568 98.2331 50.6442 97.6992 50.8195C98.2751 48.4149 98.8648 46.0132 99.447 43.61Z" fill="#06426E"/>
<path d="M106.969 45.2841C107.036 45.2749 107.167 45.2565 107.234 45.2472C108.015 45.2579 108.802 45.2118 109.582 45.2871L109.542 45.4701C108.673 45.4162 107.802 45.4686 106.932 45.4468L106.969 45.2841Z" fill="#080D06"/>
<path d="M107.12 47.6416C107.309 47.4877 107.664 47.4508 107.705 47.7629C107.681 48.2873 107.507 48.7887 107.392 49.2961C107.049 50.7244 106.775 52.1682 106.49 53.6105C106.436 53.9149 106.274 54.3101 105.886 54.2548C102.953 54.2348 100.02 54.2917 97.0873 54.3068C97.0844 54.1131 97.0008 53.8533 97.2099 53.7305C97.6432 53.3781 98.1544 53.1416 98.6311 52.8541C101.495 51.1719 104.292 49.3806 107.12 47.6416ZM99.9642 52.3372C99.3683 52.7217 98.7054 53.0091 98.1544 53.4552C98.1154 53.4522 98.0366 53.446 97.9961 53.4426L97.9809 53.5164C97.7238 53.6766 97.4637 53.8334 97.1743 53.9256C97.3121 54.0441 97.4667 54.1732 97.6759 54.0795C100.501 54.0242 103.327 54.0334 106.153 54.0408C106.589 51.9022 107.045 49.7636 107.537 47.6401C105.036 49.2422 102.493 50.7797 99.9642 52.3372Z" fill="#E7DB6F"/>
<path d="M98.4171 53.4767C101.376 51.8225 104.186 49.9079 107.123 48.2135C106.919 49.8802 106.368 51.4871 106.143 53.1523C106.087 53.4062 106.058 53.8228 105.711 53.8228C103.11 53.849 100.507 53.8228 97.9062 53.8549C97.9233 53.7704 97.9605 53.5999 97.9791 53.515L97.9943 53.4412C98.0348 53.4446 98.1136 53.4508 98.1526 53.4538L98.4171 53.4767Z" fill="#07436D"/>
<path d="M43.9751 54.842C44.0185 54.8649 44.1051 54.9081 44.1501 54.9309C42.0909 58.0968 39.2081 60.7568 35.7861 62.4113C35.4996 62.5437 35.1886 62.7205 35.1745 63.0739C35.0787 64.0259 35.1095 65.0052 34.8587 65.9369C34.5273 66.9549 33.4126 67.3777 32.4373 67.5117C29.8253 67.9788 27.2133 68.4419 24.5891 68.8308C23.7248 68.9905 22.7417 68.8876 22.09 68.2463C21.4197 67.5283 20.862 66.7121 20.3281 65.8893C20.8219 66.0062 21.0047 66.5305 21.3049 66.8796C21.8362 67.5976 22.398 68.4895 23.3719 68.6109C24.7236 68.7001 26.0474 68.3385 27.3775 68.1589C29.2368 67.8142 31.115 67.5762 32.9605 67.1608C33.7128 67.0039 34.453 66.5257 34.6744 65.7601C34.9144 64.8115 34.7643 63.806 35.0166 62.8603C35.1266 62.4792 35.5045 62.2928 35.8311 62.1253C38.381 60.8645 40.6136 59.024 42.4409 56.8622C42.9797 56.2087 43.4285 55.4892 43.9751 54.842Z" fill="#DDD370"/>
<path d="M44.1973 54.9646C44.5439 55.135 44.6632 55.5118 44.8166 55.8361C46.0491 58.5547 48.0075 60.9686 50.5144 62.6264C53.1137 64.3684 56.082 65.5059 59.118 66.235C61.5071 66.7929 63.9563 67.0191 66.4011 67.1774C71.303 67.2376 76.3182 66.5841 80.7864 64.4805C84.12 62.9615 86.9935 60.4306 88.8112 57.26C89.059 56.9032 89.2771 56.3866 89.7742 56.3468C90.5251 56.287 91.2794 56.3512 92.0332 56.3298C92.0518 56.2682 92.0919 56.1453 92.1105 56.0822C92.177 56.0317 92.3119 55.9302 92.3784 55.8778C92.3335 56.0992 92.2904 56.322 92.2499 56.5453L92.1384 56.5575C91.2745 56.5637 90.3966 56.439 89.5405 56.5896C88.4303 58.395 87.2473 60.203 85.6032 61.5807C83.7822 63.3028 81.5295 64.502 79.204 65.4093C76.1495 66.5516 72.904 67.173 69.6466 67.328C68.1076 67.4697 66.5546 67.4527 65.0186 67.3066C59.7266 66.9977 54.3696 65.5952 49.9849 62.5508C47.3372 60.6841 45.3383 57.9703 44.1973 54.9646Z" fill="#E4D970"/>
<path d="M89.541 56.5909C90.3971 56.4404 91.275 56.5651 92.1389 56.5588C91.2799 56.6865 90.4049 56.6433 89.541 56.5909Z" fill="#303D18"/>
<path d="M3.87109 57.867C4.23819 57.635 4.68405 57.7257 5.09424 57.7228C5.87003 57.7597 6.64583 57.6811 7.42126 57.715C7.88272 57.6796 8.26356 58.1855 8.12126 58.6161C7.91988 59.2647 7.52529 59.8492 7.41048 60.527C7.33171 60.8809 7.35809 61.2897 7.06531 61.5587C7.00475 60.5687 7.39971 59.6492 7.83776 58.7836C8.03914 58.4807 7.92916 58.0146 7.55316 57.9224C6.32816 57.8427 5.09126 58.0622 3.87109 57.867Z" fill="#ECE06E"/>
<path d="M4.30273 58.4956C4.45916 58.2971 4.65868 58.1262 4.92954 58.1631C5.8573 58.1631 6.79063 58.0849 7.71356 58.2126C7.58204 59.1472 7.02471 59.9545 6.77391 60.8604C6.35109 60.6866 6.06314 60.3265 5.72094 60.0423C5.17588 59.5948 4.79021 58.9966 4.30273 58.4956Z" fill="#0A3F6C"/>
<path d="M90.0234 59.1146C90.0792 59.0762 90.1906 58.9976 90.2464 58.9593C93.289 58.9102 96.3342 58.9563 99.3783 58.936C100.137 58.9515 100.908 58.867 101.657 59.0331C101.736 59.8186 101.437 60.5676 101.295 61.3285C101.132 61.9561 101.063 62.6063 100.891 63.232L100.717 63.2966C100.968 61.9022 101.284 60.52 101.574 59.1345C97.7231 59.1223 93.8727 59.1607 90.0234 59.1146Z" fill="#1B1923"/>
<path d="M103.299 59.0297C103.843 58.9021 104.402 58.9249 104.956 58.9282C107.173 58.9526 109.392 58.8943 111.61 58.9419C111.863 58.9249 112.25 59.071 112.168 59.388C111.991 60.4949 111.666 61.5727 111.47 62.6767C111.363 62.932 111.407 63.3593 111.078 63.4423C111.361 62.0019 111.714 60.5765 111.982 59.1341C109.13 59.1341 106.276 59.1341 103.425 59.1341C103.152 60.6178 102.705 62.0771 102.593 63.5855C102.259 63.2719 102.472 62.7937 102.536 62.4155C102.808 61.2897 102.929 60.1289 103.299 59.0297Z" fill="#252530"/>
<path d="M89.9335 59.1116L90.0216 59.1164C93.8708 59.1625 97.7212 59.1241 101.572 59.1363C101.282 60.5218 100.966 61.904 100.716 63.2984C100.663 63.3508 100.556 63.4537 100.503 63.5061C96.6965 63.5722 92.8859 63.5013 89.0801 63.6105C89.0894 63.5474 89.1079 63.4246 89.1172 63.3615C89.3201 62.1313 89.5523 60.9015 89.8715 59.6946C89.9272 59.9145 89.9614 60.1388 89.9057 60.3646C89.7214 61.3487 89.4966 62.3235 89.3249 63.3109C91.6939 63.3478 94.0659 63.2571 96.4345 63.3032C97.7275 63.2755 99.022 63.3168 100.313 63.26C100.553 63.291 100.535 62.9881 100.587 62.842C100.808 61.6686 101.047 60.4986 101.353 59.344C97.6562 59.3116 93.9589 59.3499 90.2601 59.33C90.1331 59.416 90.0078 59.5053 89.8871 59.599C89.8979 59.4776 89.9209 59.2333 89.9335 59.1116Z" fill="#C18768"/>
<path d="M103.425 59.134C106.277 59.134 109.13 59.134 111.982 59.134C111.715 60.5763 111.362 62.0017 111.078 63.4422L111.01 63.5053C108.889 63.5145 106.768 63.5193 104.648 63.516C103.963 63.5175 103.275 63.4975 102.594 63.5853C102.705 62.0769 103.153 60.6176 103.425 59.134Z" fill="#C98D69"/>
<path d="M115.878 61.4455C116.108 60.6644 116.047 59.7988 116.468 59.0807C116.36 60.2556 116.021 61.4057 115.796 62.5665C115.28 65.2711 114.647 67.9495 114.122 70.6527C114.02 71.1722 113.602 71.5231 113.189 71.8135L113.025 71.8091C110.207 71.6674 107.383 71.7644 104.563 71.7427L104.714 71.6475C106.652 71.6246 108.59 71.6213 110.529 71.5766C111.452 71.5489 112.416 71.7736 113.308 71.4416C113.695 71.3062 113.851 70.8818 113.926 70.5158C114.071 69.7395 114.362 68.9919 114.403 68.1971C114.438 67.5053 114.801 66.8873 114.872 66.2013C115.254 64.6254 115.452 63.0108 115.878 61.4455ZM79.4177 70.6973C80.9953 70.2959 82.483 69.6288 84.0127 69.0875C83.906 69.2934 83.6675 69.3487 83.4724 69.4395C80.9953 70.4837 78.4126 71.4168 75.7219 71.6799C75.8036 71.7242 75.8891 71.7703 75.9756 71.8183C75.3533 71.6781 74.7525 71.9349 74.1346 71.9519C73.0463 71.981 71.967 72.1349 70.8772 72.0825C69.4928 72.1489 68.1166 71.8305 66.7356 71.9703C66.8221 71.9227 66.9121 71.8751 67.0016 71.8305C64.3543 71.6906 61.7761 70.9785 59.2774 70.1391C58.9583 70.0099 58.5652 70.0022 58.3359 69.7195C59.8612 70.0516 61.3135 70.6571 62.8447 70.9663C65.4273 71.5582 68.0824 71.8533 70.7331 71.8105C71.7548 71.7843 72.7829 71.8674 73.7987 71.7106C75.6955 71.5382 77.5952 71.2615 79.4177 70.6973Z" fill="#011D3D"/>
<path d="M89.8883 59.5979C90.0091 59.5042 90.1343 59.4149 90.2614 59.3289C93.9601 59.3488 97.6574 59.3104 101.355 59.3429C101.048 60.4974 100.81 61.6675 100.588 62.8408C100.536 62.987 100.554 63.2899 100.314 63.2589C99.0233 63.3157 97.7288 63.2744 96.4358 63.3021C94.0672 63.2559 91.6952 63.3467 89.3262 63.3098C89.4978 62.3224 89.7226 61.3476 89.9069 60.3635C89.9626 60.1377 89.9285 59.9134 89.8727 59.6934C89.8757 59.6702 89.8835 59.6211 89.8883 59.5979ZM103.58 59.3245C106.299 59.3337 109.019 59.3167 111.738 59.3396C111.676 60.0517 111.411 60.7266 111.298 61.4324C111.16 62.0505 111.066 62.6792 110.869 63.2836C108.175 63.2807 105.481 63.2943 102.787 63.2899C102.991 61.9582 103.317 60.645 103.58 59.3245Z" fill="#C26427"/>
<path d="M8.53906 63.1545C8.76682 63.1914 9.00053 63.2405 9.1863 63.3866C11.4126 64.878 13.7322 66.248 16.1878 67.3335C16.793 67.6132 17.5176 67.7796 18.154 67.4933C18.815 67.1568 19.2672 66.5509 19.8123 66.0698C19.9486 65.9373 20.1158 65.8761 20.3124 65.8835C19.7889 66.4572 19.2271 67 18.6214 67.4859C18.0533 67.9394 17.2404 68.0147 16.5764 67.7379C14.8576 67.0631 13.2381 66.1665 11.6527 65.23C10.5904 64.5751 9.49135 63.9648 8.53906 63.1545Z" fill="#E4D871"/>
<path d="M88.5605 65.5007C88.5605 65.1856 88.954 65.3162 89.1506 65.2672C90.908 65.2347 92.6651 65.2609 94.4225 65.2303C94.6332 65.2487 94.9612 65.1871 95.0556 65.4468C92.8913 65.5051 90.7252 65.5085 88.5605 65.5007Z" fill="#1B253F"/>
<path d="M96.7996 65.3404C97.6512 65.1807 98.5195 65.2607 99.3804 65.2482C102.527 65.2423 105.674 65.2283 108.82 65.233C109.477 65.2375 110.143 65.1807 110.788 65.3345C110.98 66.0264 110.722 66.7414 110.494 67.3934C110.364 67.4041 110.104 67.4241 109.974 67.4333L110.135 67.3056C110.189 67.2857 110.301 67.244 110.356 67.2241C110.524 66.6474 110.623 66.054 110.708 65.4622C106.113 65.4482 101.517 65.453 96.9234 65.4773C96.716 66.074 96.6168 66.6983 96.5674 67.3255C96.9282 67.3285 97.2886 67.3303 97.6512 67.3178L97.6635 67.5008C97.2592 67.524 96.849 67.5362 96.4604 67.4178C96.3226 66.7167 96.479 65.9725 96.7996 65.3404Z" fill="#202436"/>
<path d="M88.5585 65.5014C90.7232 65.5092 92.8893 65.5058 95.0536 65.4475L95.0257 65.5737C94.9562 65.9102 94.8927 66.2486 94.8121 66.584C94.7548 66.298 94.7006 66.015 94.659 65.7305C93.2408 65.6276 91.8177 65.7612 90.3962 65.7305C89.8389 65.7398 89.2678 65.649 88.7212 65.7903C88.5043 66.1888 88.5786 66.6622 88.5448 67.0991C90.514 67.0972 92.4821 67.0928 94.4513 67.0913C94.5349 66.9113 94.6527 66.7607 94.8057 66.6379C94.7797 66.8652 94.7534 67.0928 94.7255 67.322C92.5731 67.3404 90.4196 67.3555 88.2676 67.3419C88.2954 66.8113 88.362 66.284 88.4548 65.7612C88.4797 65.6966 88.5321 65.566 88.5585 65.5014Z" fill="#B67E5F"/>
<path d="M96.9263 65.4772C101.52 65.4529 106.115 65.4481 110.711 65.4621C110.626 66.0539 110.526 66.6472 110.359 67.224C110.304 67.2439 110.192 67.2856 110.138 67.3055C105.978 67.2793 101.814 67.2594 97.6541 67.3177C97.2915 67.3302 96.9311 67.3284 96.5703 67.3254C96.6197 66.6982 96.7189 66.0738 96.9263 65.4772Z" fill="#BE8364"/>
<path d="M88.7195 65.7906C89.266 65.6493 89.8371 65.7401 90.3944 65.7309C91.816 65.7615 93.239 65.6279 94.6572 65.7309C94.6988 66.0153 94.7531 66.2983 94.8103 66.5843L94.804 66.6382C94.6509 66.7611 94.5331 66.9116 94.4495 67.0917C92.4803 67.0931 90.5122 67.0976 88.543 67.0994C88.5768 66.6625 88.5025 66.1891 88.7195 65.7906Z" fill="#C1642A"/>
<path d="M97.0653 65.7393C98.9186 65.647 100.781 65.7083 102.639 65.6898C105.229 65.7116 107.824 65.6548 110.413 65.7208C110.399 66.1835 110.285 66.634 110.164 67.0798C105.702 67.106 101.24 67.1015 96.7773 67.0846C96.836 66.6292 96.9431 66.182 97.0653 65.7393Z" fill="#C1642B"/>
<path d="M11.1763 66.1736C11.3386 66.1983 11.4364 66.2921 11.4705 66.4551C11.2119 66.5227 11.1142 66.4304 11.1763 66.1736Z" fill="#03152B"/>
<path d="M97.6523 67.3169C101.813 67.2586 105.976 67.2786 110.136 67.3047L109.975 67.4324C109.762 67.5199 109.522 67.4848 109.299 67.4999C105.42 67.4848 101.543 67.4999 97.6646 67.4999L97.6523 67.3169Z" fill="#3A2922"/>
<path d="M22.7188 70.7816C22.7358 70.6156 22.8258 70.5127 22.9866 70.4739C23.0673 70.7248 22.9788 70.8278 22.7188 70.7816Z" fill="#01162B"/>
<path d="M89.0137 71.2669C89.3993 71.4495 89.7958 71.6728 90.2383 71.6573C95.0629 71.6432 99.8889 71.6573 104.714 71.6495L104.563 71.7447C102.939 71.7956 101.313 71.7801 99.6894 71.7834C99.4461 71.7772 99.2153 71.848 98.9879 71.917C95.9022 72 92.8009 71.9602 89.7088 71.934C89.4595 71.7325 89.1359 71.5805 89.0137 71.2669Z" fill="#041F3A"/>
<path d="M98.9883 71.915C99.2157 71.846 99.4464 71.7751 99.6898 71.7814C101.314 71.7781 102.939 71.7936 104.564 71.7427C107.383 71.7644 110.207 71.6674 113.025 71.8091C112.105 72.032 111.152 71.9582 110.215 71.9718C106.473 71.9165 102.727 72.0072 98.9883 71.915Z" fill="#234768"/>
</svg>
